<svg viewBox="-160 -160 320 320" width="320" height="320" xmlns="http://www.w3.org/2000/svg" role="img" aria-label="Table de repas · 4 places · modèle générique"><path d="M-32.6,27.0L-27.9,24.5L-28.4,-93.8z" style="fill:rgb(77,73,66);fill-opacity:1"></path><path d="M-37.8,25.1L-31.7,26.9L-32.2,-91.7zM-37.7,-92.9L-37.3,25.7L-31.7,-91.1z" style="fill:rgb(80,75,68);fill-opacity:1"></path><path d="M-32.6,-91.0L-32.2,27.3L-27.9,-93.5z" style="fill:rgb(77,73,66);fill-opacity:1"></path><path d="M-34.3,-103.5L-36.1,-103.3L-32.3,-103.5z" style="fill:rgb(218,190,148);fill-opacity:1"></path><path d="M-33.5,-94.7L-38.2,-92.0L-27.4,-92.6zM-38.2,-92.4L-32.1,-90.3L-27.5,-93.1z" style="fill:rgb(82,78,71);fill-opacity:1"></path><path d="M-35.2,-103.5L-110.0,-63.2L-33.2,-103.9z" style="fill:rgb(223,194,151);fill-opacity:1"></path><path d="M-33.3,-103.6L-35.1,-103.7L109.8,-60.3z" style="fill:rgb(221,192,149);fill-opacity:1"></path><path d="M-99.0,62.6L-94.3,60.1L-94.7,-58.1z" style="fill:rgb(77,73,66);fill-opacity:1"></path><path d="M-104.1,60.7L-98.1,62.5L-98.5,-56.1z" style="fill:rgb(80,75,68);fill-opacity:1"></path><path d="M-110.0,-63.3L-108.0,-63.7L-33.2,-104.0z" style="fill:rgb(223,194,151);fill-opacity:1"></path><path d="M99.3,66.9L104.1,64.4L103.6,-53.9z" style="fill:rgb(77,73,66);fill-opacity:1"></path><path d="M-34.1,-103.9L-109.0,-63.6L109.0,-60.5z" style="fill:rgb(233,203,158);fill-opacity:1"></path><path d="M94.2,65.0L100.3,66.8L99.8,-51.9z" style="fill:rgb(80,75,68);fill-opacity:1"></path><path d="M-35.0,-103.8L108.0,-60.4L109.8,-60.5z" style="fill:rgb(221,192,149);fill-opacity:1"></path><path d="M-104.1,-57.3L-103.6,61.4L-98.0,-55.4z" style="fill:rgb(80,75,68);fill-opacity:1"></path><path d="M-99.0,-55.4L-98.6,62.9L-94.3,-57.9z" style="fill:rgb(77,73,66);fill-opacity:1"></path><path d="M94.3,-53.0L94.7,65.6L100.3,-51.2z" style="fill:rgb(80,75,68);fill-opacity:1"></path><path d="M99.4,-51.1L99.8,67.1L104.1,-53.6z" style="fill:rgb(77,73,66);fill-opacity:1"></path><path d="M-99.8,-59.1L-104.6,-56.3L-93.8,-57.0zM-104.6,-56.7L-98.5,-54.7L-93.8,-57.4z" style="fill:rgb(82,78,71);fill-opacity:1"></path><path d="M-110.5,-58.6L-109.5,-56.0L-108.6,-57.7z" style="fill:rgb(207,180,139);fill-opacity:1"></path><path d="M-110.2,-56.9L-108.2,-55.7L-109.0,-58.3z" style="fill:rgb(205,179,138);fill-opacity:1"></path><path d="M-110.4,-57.7L-108.7,-56.7L-109.1,-62.6zM-110.3,-62.8L-109.9,-56.9L-108.6,-61.8z" style="fill:rgb(217,189,147);fill-opacity:1"></path><path d="M-109.3,-64.0L-110.2,-62.4L-107.1,-64.1z" style="fill:rgb(229,200,155);fill-opacity:1"></path><path d="M-109.8,-63.6L-110.3,-61.2L-108.0,-63.2z" style="fill:rgb(228,199,154);fill-opacity:1"></path><path d="M-110.4,-62.9L-108.5,-62.4L-107.5,-64.6z" style="fill:rgb(233,203,158);fill-opacity:1"></path><path d="M-110.7,-62.1L-108.7,-60.8L-108.5,-63.7z" style="fill:rgb(228,198,154);fill-opacity:1"></path><path d="M98.5,-54.8L93.8,-52.1L104.6,-52.8z" style="fill:rgb(82,78,71);fill-opacity:1"></path><path d="M108.6,-52.5L109.8,-53.8L110.1,-55.9z" style="fill:rgb(202,175,136);fill-opacity:1"></path><path d="M109.4,-54.4L108.7,-52.4L110.3,-55.8z" style="fill:rgb(199,173,134);fill-opacity:1"></path><path d="M109.2,-53.5L110.2,-54.8L109.9,-60.1z" style="fill:rgb(208,181,140);fill-opacity:1"></path><path d="M93.8,-52.5L99.9,-50.4L104.5,-53.2z" style="fill:rgb(82,78,71);fill-opacity:1"></path><path d="M109.2,-58.6L109.5,-53.4L110.2,-60.0z" style="fill:rgb(208,181,140);fill-opacity:1"></path><path d="M109.0,-60.9L107.1,-60.8L110.4,-59.5z" style="fill:rgb(225,196,152);fill-opacity:1"></path><path d="M109.3,-57.6L110.5,-59.2L109.1,-60.8z" style="fill:rgb(217,189,147);fill-opacity:1"></path><path d="M107.2,-61.0L109.4,-59.0L110.1,-60.4z" style="fill:rgb(229,199,155);fill-opacity:1"></path><path d="M108.5,-60.1L109.7,-57.6L110.0,-60.7z" style="fill:rgb(223,194,150);fill-opacity:1"></path><path d="M-109.8,-58.1L-109.2,-56.1L34.0,-14.2z" style="fill:rgb(212,184,143);fill-opacity:1"></path><path d="M-109.6,-62.2L-109.6,-57.1L34.0,-18.4z" style="fill:rgb(227,197,153);fill-opacity:1"></path><path d="M-108.2,-64.4L-109.6,-62.7L35.0,-20.6z" style="fill:rgb(240,209,162);fill-opacity:1"></path><path d="M-109.2,-63.6L-109.7,-61.2L34.3,-19.7z" style="fill:rgb(237,206,160);fill-opacity:1"></path><path d="M-109.0,-64.0L34.1,-20.5L109.0,-60.9z" style="fill:rgb(233,203,158);fill-opacity:1"></path><path d="M34.2,-13.1L109.5,-53.1L109.9,-55.1z" style="fill:rgb(205,179,138);fill-opacity:1"></path><path d="M34.7,-14.2L110.0,-54.1L109.9,-59.3z" style="fill:rgb(220,192,149);fill-opacity:1"></path><path d="M108.1,-61.2L33.2,-20.4L109.9,-59.8z" style="fill:rgb(237,207,161);fill-opacity:1"></path><path d="M34.7,-18.3L110.3,-58.4L109.2,-60.5z" style="fill:rgb(231,201,156);fill-opacity:1"></path><path d="M33.0,102.5L37.7,100.0L37.3,-18.3z" style="fill:rgb(77,73,66);fill-opacity:1"></path><path d="M27.9,100.6L33.9,102.4L33.5,-16.2z" style="fill:rgb(80,75,68);fill-opacity:1"></path><path d="M-109.8,-56.7L34.1,-13.0L33.2,-14.8z" style="fill:rgb(212,184,143);fill-opacity:1"></path><path d="M-110.1,-57.7L33.5,-13.9L33.4,-19.0z" style="fill:rgb(227,197,153);fill-opacity:1"></path><path d="M-109.8,-63.2L33.7,-19.4L34.7,-21.2z" style="fill:rgb(240,209,162);fill-opacity:1"></path><path d="M35.3,-14.9L34.5,-12.9L110.4,-54.9z" style="fill:rgb(205,179,138);fill-opacity:1"></path><path d="M-110.1,-61.9L33.5,-18.0L33.7,-20.4z" style="fill:rgb(237,206,160);fill-opacity:1"></path><path d="M35.1,-19.1L35.1,-13.9L110.4,-59.0z" style="fill:rgb(220,192,149);fill-opacity:1"></path><path d="M33.2,-21.0L35.1,-19.6L110.0,-60.3z" style="fill:rgb(237,207,161);fill-opacity:1"></path><path d="M34.5,-20.3L35.3,-18.1L110.0,-60.3z" style="fill:rgb(231,201,156);fill-opacity:1"></path><path d="M27.9,-17.4L28.4,101.2L34.0,-15.6z" style="fill:rgb(80,75,68);fill-opacity:1"></path><path d="M33.0,-15.5L33.4,102.8L37.7,-18.0z" style="fill:rgb(77,73,66);fill-opacity:1"></path><path d="M32.1,-19.2L27.4,-16.5L38.2,-17.1zM27.4,-16.9L33.5,-14.8L38.2,-17.6z" style="fill:rgb(82,78,71);fill-opacity:1"></path><path d="M33.2,-13.1L36.1,-13.8L34.2,-13.8zM32.3,-13.4L35.0,-13.1L34.3,-13.9z" style="fill:rgb(199,173,134);fill-opacity:1"></path><path d="M33.4,-13.2L35.6,-13.2L35.9,-15.5z" style="fill:rgb(213,185,144);fill-opacity:1"></path><path d="M32.5,-13.1L35.0,-13.1L34.4,-15.2z" style="fill:rgb(221,192,149);fill-opacity:1"></path><path d="M32.3,-15.0L33.2,-12.6L35.1,-14.7zM33.9,-14.8L34.0,-12.7L36.3,-15.1z" style="fill:rgb(218,190,147);fill-opacity:1"></path><path d="M33.7,-13.8L36.1,-14.3L35.6,-19.8z" style="fill:rgb(228,199,154);fill-opacity:1"></path><path d="M32.3,-14.1L34.9,-13.8L34.5,-19.5z" style="fill:rgb(232,202,157);fill-opacity:1"></path><path d="M33.9,-18.9L34.2,-13.4L36.1,-19.4z" style="fill:rgb(228,199,154);fill-opacity:1"></path><path d="M32.5,-19.2L32.9,-13.5L35.0,-18.9z" style="fill:rgb(232,202,157);fill-opacity:1"></path><path d="M34.0,-21.6L32.5,-19.5L36.0,-19.9z" style="fill:rgb(244,212,165);fill-opacity:1"></path><path d="M33.6,-17.9L36.3,-18.5L35.0,-21.0z" style="fill:rgb(238,207,161);fill-opacity:1"></path><path d="M32.4,-20.1L34.5,-19.0L35.8,-20.6z" style="fill:rgb(242,211,164);fill-opacity:1"></path><path d="M33.0,-20.7L32.5,-17.8L35.1,-19.8z" style="fill:rgb(240,209,163);fill-opacity:1"></path><path d="M33.8,-19.9L34.2,-17.6L35.7,-20.8z" style="fill:rgb(234,204,158);fill-opacity:1"></path><path d="M32.1,-18.4L35.1,-18.0L34.5,-20.4z" style="fill:rgb(239,208,162);fill-opacity:1"></path></svg>
