<svg viewBox="-160 -160 320 320" width="320" height="320" xmlns="http://www.w3.org/2000/svg" role="img" aria-label="Fauteuil compact · modèle générique"><path d="M-11.7,47.2L-6.3,44.4L-6.6,19.7z" style="fill:rgb(77,73,66);fill-opacity:1"></path><path d="M-17.8,45.0L-10.7,47.1L-11.1,22.1z" style="fill:rgb(80,75,68);fill-opacity:1"></path><path d="M-12.7,18.5L-18.1,21.6L-5.7,20.8z" style="fill:rgb(82,78,71);fill-opacity:1"></path><path d="M-17.6,20.6L-17.3,45.7L-10.6,22.7z" style="fill:rgb(80,75,68);fill-opacity:1"></path><path d="M-11.6,22.8L-11.3,47.5L-6.2,20.0z" style="fill:rgb(77,73,66);fill-opacity:1"></path><path d="M-18.1,21.2L-11.1,23.5L-5.8,20.4z" style="fill:rgb(82,78,71);fill-opacity:1"></path><path d="M-13.1,-33.7L-18.0,-33.4L-7.5,-34.0z" style="fill:rgb(238,223,203);fill-opacity:1"></path><path d="M-1.8,-33.1L0.2,-35.7L1.4,-39.6z" style="fill:rgb(220,206,188);fill-opacity:1"></path><path d="M-0.1,-37.1L-1.7,-33.1L1.5,-39.5z" style="fill:rgb(217,203,185);fill-opacity:1"></path><path d="M-0.3,-36.1L1.3,-38.6L1.0,-68.9z" style="fill:rgb(227,212,193);fill-opacity:1"></path><path d="M-13.4,-74.8L-16.8,-74.5L-9.5,-74.9z" style="fill:rgb(238,223,203);fill-opacity:1"></path><path d="M-28.2,-37.4L-26.5,-32.1L-24.3,-35.0z" style="fill:rgb(225,211,192);fill-opacity:1"></path><path d="M-10.5,-75.0L-13.8,-75.2L-1.0,-72.0z" style="fill:rgb(241,225,205);fill-opacity:1"></path><path d="M-27.1,-33.0L-23.1,-30.2L-24.8,-35.6z" style="fill:rgb(224,209,191);fill-opacity:1"></path><path d="M-0.3,-66.4L-0.0,-36.1L1.3,-68.8z" style="fill:rgb(227,212,193);fill-opacity:1"></path><path d="M-13.8,-75.3L-4.3,-72.4L-1.0,-72.1z" style="fill:rgb(241,225,205);fill-opacity:1"></path><path d="M-1.9,-72.6L-5.2,-72.7L0.9,-70.2z" style="fill:rgb(246,230,210);fill-opacity:1"></path><path d="M-0.3,-65.4L1.5,-67.9L-0.2,-71.6z" style="fill:rgb(237,222,202);fill-opacity:1"></path><path d="M-8.5,-34.0L-13.1,-34.4L89.6,-4.3z" style="fill:rgb(241,225,205);fill-opacity:1"></path><path d="M-5.1,-73.0L-1.2,-69.5L0.9,-70.9z" style="fill:rgb(250,234,213);fill-opacity:1"></path><path d="M-1.9,-70.5L0.2,-65.4L0.5,-71.4z" style="fill:rgb(243,227,207);fill-opacity:1"></path><path d="M-28.1,-36.4L-24.5,-34.0L-24.9,-101.2z" style="fill:rgb(237,221,202);fill-opacity:1"></path><path d="M-17.0,-33.6L-90.8,6.2L-11.2,-34.6z" style="fill:rgb(243,228,208);fill-opacity:1"></path><path d="M-11.2,-37.4L-13.9,-37.1L-8.2,-37.5z" style="fill:rgb(262,254,241);fill-opacity:1"></path><path d="M-13.3,-112.8L-17.4,-112.4L-8.5,-113.0z" style="fill:rgb(238,223,203);fill-opacity:1"></path><path d="M-28.1,-102.8L-27.7,-35.6L-24.5,-100.4z" style="fill:rgb(237,221,202);fill-opacity:1"></path><path d="M-16.4,-112.7L-25.6,-107.6L-11.5,-113.5z" style="fill:rgb(243,228,208);fill-opacity:1"></path><path d="M-78.9,7.7L-0.9,-33.8L0.6,-37.8z" style="fill:rgb(224,209,191);fill-opacity:1"></path><path d="M83.8,76.1L89.2,73.2L88.9,48.5z" style="fill:rgb(77,73,66);fill-opacity:1"></path><path d="M-25.6,-35.4L-24.1,-30.6L75.8,-4.4z" style="fill:rgb(231,216,197);fill-opacity:1"></path><path d="M-25.7,-107.8L-20.7,-108.6L-11.6,-113.6z" style="fill:rgb(243,228,208);fill-opacity:1"></path><path d="M77.7,73.9L84.8,76.0L84.4,50.9z" style="fill:rgb(80,75,68);fill-opacity:1"></path><path d="M-24.9,-108.4L-27.1,-105.1L-19.9,-109.0z" style="fill:rgb(250,234,213);fill-opacity:1"></path><path d="M82.8,47.3L77.4,50.4L89.7,49.6z" style="fill:rgb(82,78,71);fill-opacity:1"></path><path d="M77.9,49.5L78.2,74.5L84.9,51.6z" style="fill:rgb(80,75,68);fill-opacity:1"></path><path d="M-77.5,4.7L0.4,-36.8L0.4,-67.2z" style="fill:rgb(240,225,205);fill-opacity:1"></path><path d="M83.9,51.7L84.2,76.3L89.3,48.8z" style="fill:rgb(77,73,66);fill-opacity:1"></path><path d="M-15.9,-74.7L-93.4,-32.9L-11.9,-75.4z" style="fill:rgb(243,228,208);fill-opacity:1"></path><path d="M-26.7,-106.3L-28.2,-101.2L-22.9,-105.5z" style="fill:rgb(249,233,212);fill-opacity:1"></path><path d="M-13.1,-34.5L85.0,-4.8L89.6,-4.4z" style="fill:rgb(241,225,205);fill-opacity:1"></path><path d="M-27.3,-105.6L-23.5,-104.8L-20.1,-109.4z" style="fill:rgb(254,238,217);fill-opacity:1"></path><path d="M-28.4,-102.0L-24.6,-99.4L-23.3,-106.1z" style="fill:rgb(248,232,212);fill-opacity:1"></path><path d="M-9.2,-37.5L-11.7,-37.8L62.5,-15.8z" style="fill:rgb(265,257,244);fill-opacity:1"></path><path d="M77.4,50.0L84.4,52.3L89.7,49.2z" style="fill:rgb(82,78,71);fill-opacity:1"></path><path d="M89.4,49.8L92.1,46.1L93.8,40.5z" style="fill:rgb(220,206,188);fill-opacity:1"></path><path d="M-12.8,-75.5L-90.4,-33.4L-3.3,-72.6z" style="fill:rgb(254,237,217);fill-opacity:1"></path><path d="M91.8,43.9L89.5,49.8L94.0,40.6z" style="fill:rgb(217,203,185);fill-opacity:1"></path><path d="M-4.2,-73.0L-81.9,-30.8L-0.4,-70.1z" style="fill:rgb(259,242,221);fill-opacity:1"></path><path d="M-77.6,-24.6L0.7,-66.1L-1.0,-70.9z" style="fill:rgb(252,235,215);fill-opacity:1"></path><path d="M-12.2,-34.6L-86.0,5.2L86.0,-4.8z" style="fill:rgb(254,237,217);fill-opacity:1"></path><path d="M-9.5,-113.0L-13.4,-113.4L91.2,-82.5z" style="fill:rgb(241,225,205);fill-opacity:1"></path><path d="M-12.9,-37.4L-73.2,-4.8L-9.8,-37.9z" style="fill:rgb(268,260,247);fill-opacity:1"></path><path d="M91.6,44.9L93.8,41.5L93.5,1.4z" style="fill:rgb(227,212,193);fill-opacity:1"></path><path d="M-90.8,6.0L-85.0,5.0L-11.3,-34.7z" style="fill:rgb(243,228,208);fill-opacity:1"></path><path d="M-25.4,-100.8L-25.4,-34.1L75.8,-70.0z" style="fill:rgb(247,231,211);fill-opacity:1"></path><path d="M-12.5,-113.6L-21.7,-108.6L88.2,-82.8z" style="fill:rgb(254,237,217);fill-opacity:1"></path><path d="M-83.3,85.7L-77.9,82.8L-78.2,58.1z" style="fill:rgb(77,73,66);fill-opacity:1"></path><path d="M-24.7,-31.2L76.7,-0.2L75.1,-5.0z" style="fill:rgb(231,216,197);fill-opacity:1"></path><path d="M91.6,4.9L91.8,45.0L93.8,1.5z" style="fill:rgb(227,212,193);fill-opacity:1"></path><path d="M-11.7,-37.8L60.0,-16.0L62.6,-15.9z" style="fill:rgb(265,257,244);fill-opacity:1"></path><path d="M-89.4,83.5L-82.3,85.6L-82.7,60.6z" style="fill:rgb(80,75,68);fill-opacity:1"></path><path d="M-84.3,56.9L-89.7,60.0L-77.4,59.3z" style="fill:rgb(82,78,71);fill-opacity:1"></path><path d="M-89.3,59.1L-88.9,84.1L-82.2,61.2z" style="fill:rgb(80,75,68);fill-opacity:1"></path><path d="M88.8,-4.8L84.1,-5.1L92.8,-1.5z" style="fill:rgb(246,230,210);fill-opacity:1"></path><path d="M-83.2,61.3L-82.9,85.9L-77.8,58.4z" style="fill:rgb(77,73,66);fill-opacity:1"></path><path d="M91.6,5.9L94.0,2.5L91.7,-2.9z" style="fill:rgb(237,222,202);fill-opacity:1"></path><path d="M-20.9,-109.3L-24.5,-105.0L79.9,-78.3z" style="fill:rgb(261,244,223);fill-opacity:1"></path><path d="M-89.8,59.6L-82.7,62.0L-77.4,58.8z" style="fill:rgb(82,78,71);fill-opacity:1"></path><path d="M84.2,-5.4L89.9,-0.6L92.8,-2.1z" style="fill:rgb(250,234,213);fill-opacity:1"></path><path d="M89.2,-1.4L92.0,5.9L92.4,-2.7z" style="fill:rgb(243,227,207);fill-opacity:1"></path><path d="M92.0,-4.8L94.0,-7.4L95.1,-11.3z" style="fill:rgb(220,206,188);fill-opacity:1"></path><path d="M-24.1,-105.9L-25.5,-99.8L77.0,-74.9z" style="fill:rgb(258,241,220);fill-opacity:1"></path><path d="M90.7,-4.8L93.0,-7.9L94.5,-12.7z" style="fill:rgb(220,206,188);fill-opacity:1"></path><path d="M-77.0,3.9L-78.6,7.9L0.9,-37.6z" style="fill:rgb(224,209,191);fill-opacity:1"></path><path d="M93.7,-8.8L92.1,-4.8L95.3,-11.2z" style="fill:rgb(217,203,185);fill-opacity:1"></path><path d="M-10.8,-37.9L-71.2,-5.4L61.0,-16.1z" style="fill:rgb(279,271,257);fill-opacity:1"></path><path d="M92.7,-9.7L90.8,-4.8L94.6,-12.6z" style="fill:rgb(217,203,185);fill-opacity:1"></path><path d="M-94.1,51.5L-92.0,57.5L-89.5,54.3z" style="fill:rgb(225,211,192);fill-opacity:1"></path><path d="M-92.7,56.7L-88.1,60.0L-90.0,53.6z" style="fill:rgb(224,209,191);fill-opacity:1"></path><path d="M-25.9,-34.8L75.3,-4.0L75.3,-70.7z" style="fill:rgb(247,231,211);fill-opacity:1"></path><path d="M93.5,-7.8L95.1,-10.3L94.8,-40.6z" style="fill:rgb(227,212,193);fill-opacity:1"></path><path d="M61.6,-2.0L63.2,-4.1L64.0,-7.1z" style="fill:rgb(242,235,223);fill-opacity:1"></path><path d="M80.4,-46.4L77.0,-46.2L84.3,-46.6z" style="fill:rgb(238,223,203);fill-opacity:1"></path><path d="M62.9,-5.1L61.7,-2.0L64.2,-7.0z" style="fill:rgb(239,232,220);fill-opacity:1"></path><path d="M82.1,-0.7L91.5,-5.5L93.4,-10.5z" style="fill:rgb(224,209,191);fill-opacity:1"></path><path d="M-93.5,-33.0L-89.5,-33.7L-11.9,-75.5z" style="fill:rgb(243,228,208);fill-opacity:1"></path><path d="M62.7,-4.1L64.0,-6.1L63.7,-14.0z" style="fill:rgb(250,242,230);fill-opacity:1"></path><path d="M-13.4,-113.5L87.3,-82.9L91.2,-82.6z" style="fill:rgb(241,225,205);fill-opacity:1"></path><path d="M62.7,-12.0L62.9,-4.0L64.0,-13.9z" style="fill:rgb(250,242,230);fill-opacity:1"></path><path d="M61.7,-16.3L59.0,-16.4L63.9,-14.4z" style="fill:rgb(270,262,249);fill-opacity:1"></path><path d="M83.3,-46.6L80.0,-46.9L92.7,-43.7z" style="fill:rgb(241,225,205);fill-opacity:1"></path><path d="M-73.3,-5.0L-70.2,-5.5L-9.9,-38.0z" style="fill:rgb(268,260,247);fill-opacity:1"></path><path d="M62.7,-11.0L64.2,-13.0L62.8,-15.8z" style="fill:rgb(261,253,240);fill-opacity:1"></path><path d="M-77.2,-25.4L-77.1,5.0L0.8,-66.9z" style="fill:rgb(240,225,205);fill-opacity:1"></path><path d="M16.1,88.5L90.2,49.1L92.5,43.3z" style="fill:rgb(224,209,191);fill-opacity:1"></path><path d="M59.1,-16.6L62.2,-13.8L63.8,-15.2z" style="fill:rgb(275,267,253);fill-opacity:1"></path><path d="M61.5,-14.9L63.2,-10.9L63.5,-15.6z" style="fill:rgb(267,259,246);fill-opacity:1"></path><path d="M93.5,-38.1L93.8,-7.7L95.1,-40.5z" style="fill:rgb(227,212,193);fill-opacity:1"></path><path d="M-93.9,52.4L-89.7,55.2L-90.1,14.4z" style="fill:rgb(237,221,202);fill-opacity:1"></path><path d="M84.3,-5.5L82.3,-0.4L93.6,-10.2z" style="fill:rgb(224,209,191);fill-opacity:1"></path><path d="M-90.5,-33.8L-81.0,-30.9L-3.4,-72.9z" style="fill:rgb(254,237,217);fill-opacity:1"></path><path d="M92.5,-8.8L94.4,-11.7L94.2,-78.1z" style="fill:rgb(227,212,193);fill-opacity:1"></path><path d="M78.0,-0.2L83.9,-1.4L79.7,-1.2zM75.0,-0.8L79.2,-0.1L80.5,-1.5z" style="fill:rgb(217,203,185);fill-opacity:1"></path><path d="M80.0,-47.0L89.5,-44.0L92.8,-43.8z" style="fill:rgb(241,225,205);fill-opacity:1"></path><path d="M91.9,-44.2L88.6,-44.4L94.7,-41.8z" style="fill:rgb(246,230,210);fill-opacity:1"></path><path d="M78.9,-0.6L83.3,-0.8L85.0,-6.0z" style="fill:rgb(232,217,198);fill-opacity:1"></path><path d="M93.5,-37.1L95.3,-39.6L93.6,-43.3z" style="fill:rgb(237,222,202);fill-opacity:1"></path><path d="M-81.8,-31.4L-78.0,-28.4L-0.4,-70.6z" style="fill:rgb(259,242,221);fill-opacity:1"></path><path d="M-78.6,-29.2L-77.0,-24.4L-0.4,-70.7z" style="fill:rgb(252,235,215);fill-opacity:1"></path><path d="M-93.9,12.4L-93.5,53.2L-89.7,15.2z" style="fill:rgb(237,221,202);fill-opacity:1"></path><path d="M75.2,-0.5L80.3,-0.5L80.3,-5.0z" style="fill:rgb(241,226,206);fill-opacity:1"></path><path d="M88.7,-44.6L92.6,-41.2L94.7,-42.5z" style="fill:rgb(250,234,213);fill-opacity:1"></path><path d="M91.9,-42.1L94.0,-37.0L94.3,-43.0z" style="fill:rgb(243,227,207);fill-opacity:1"></path><path d="M74.2,-5.2L75.8,-0.0L80.8,-4.4zM79.5,-4.5L79.4,-0.1L85.4,-5.7z" style="fill:rgb(238,223,203);fill-opacity:1"></path><path d="M-21.7,-109.0L79.0,-78.2L88.2,-83.2z" style="fill:rgb(254,237,217);fill-opacity:1"></path><path d="M84.0,-4.5L93.3,-9.4L92.9,-76.0zM18.2,83.7L92.3,44.3L92.2,4.1z" style="fill:rgb(240,225,205);fill-opacity:1"></path><path d="M-90.1,5.4L-92.7,9.2L-84.1,4.6z" style="fill:rgb(250,234,213);fill-opacity:1"></path><path d="M-92.3,8.0L-94.0,14.0L-87.8,8.9z" style="fill:rgb(249,233,212);fill-opacity:1"></path><path d="M-92.9,8.7L-88.5,9.6L-84.3,4.3z" style="fill:rgb(254,238,217);fill-opacity:1"></path><path d="M-24.7,-105.6L76.2,-74.6L79.7,-78.9z" style="fill:rgb(261,244,223);fill-opacity:1"></path><path d="M-94.3,13.2L-89.8,16.2L-88.2,8.3z" style="fill:rgb(248,232,212);fill-opacity:1"></path><path d="M-25.9,-100.4L75.2,-69.4L76.6,-75.5z" style="fill:rgb(258,241,220);fill-opacity:1"></path><path d="M92.6,-75.1L92.8,-8.7L94.4,-78.0z" style="fill:rgb(227,212,193);fill-opacity:1"></path><path d="M-95.4,-0.1L-93.9,4.3L-92.1,1.8z" style="fill:rgb(225,211,192);fill-opacity:1"></path><path d="M-94.6,3.4L-91.2,5.7L-92.6,1.2z" style="fill:rgb(224,209,191);fill-opacity:1"></path><path d="M79.4,-3.5L85.0,-4.8L84.5,-71.6z" style="fill:rgb(249,233,213);fill-opacity:1"></path><path d="M74.3,-4.2L80.5,-3.6L80.0,-70.5z" style="fill:rgb(253,236,216);fill-opacity:1"></path><path d="M-90.8,53.8L-89.0,59.5L8.0,84.1zM-93.3,1.4L-92.1,5.5L-83.2,4.7z" style="fill:rgb(231,216,197);fill-opacity:1"></path><path d="M85.1,-5.4L11.3,34.7L90.7,-1.1z" style="fill:rgb(259,242,221);fill-opacity:1"></path><path d="M-92.8,4.8L-82.6,8.1L-83.9,4.1z" style="fill:rgb(231,216,197);fill-opacity:1"></path><path d="M-81.9,8.1L-77.0,7.1L-80.4,7.2z" style="fill:rgb(217,203,185);fill-opacity:1"></path><path d="M18.1,44.6L92.5,5.2L90.1,-1.9z" style="fill:rgb(252,235,215);fill-opacity:1"></path><path d="M-84.2,7.5L-80.6,8.3L-79.7,6.8z" style="fill:rgb(217,203,185);fill-opacity:1"></path><path d="M-74.5,4.1L-73.3,7.7L-71.8,5.6z" style="fill:rgb(248,241,228);fill-opacity:1"></path><path d="M-74.0,6.8L-71.2,8.6L-72.3,5.0z" style="fill:rgb(247,239,227);fill-opacity:1"></path><path d="M90.3,-83.1L86.3,-83.3L93.7,-80.2z" style="fill:rgb(246,230,210);fill-opacity:1"></path><path d="M1.8,29.5L62.4,-2.6L63.5,-5.8z" style="fill:rgb(247,239,227);fill-opacity:1"></path><path d="M-95.3,0.8L-92.3,2.8L-92.7,-28.3z" style="fill:rgb(237,221,202);fill-opacity:1"></path><path d="M84.1,-70.8L84.5,-4.2L93.3,-75.8z" style="fill:rgb(240,225,205);fill-opacity:1"></path><path d="M92.5,-74.1L94.6,-77.1L92.7,-81.7z" style="fill:rgb(237,222,202);fill-opacity:1"></path><path d="M-81.3,7.8L-77.6,7.7L-76.2,3.3z" style="fill:rgb(232,217,198);fill-opacity:1"></path><path d="M-84.1,7.9L-79.8,7.9L-79.9,4.1z" style="fill:rgb(241,226,206);fill-opacity:1"></path><path d="M-74.5,5.0L-72.0,6.6L-72.4,-2.0z" style="fill:rgb(260,253,240);fill-opacity:1"></path><path d="M86.4,-83.5L91.2,-79.4L93.7,-80.8z" style="fill:rgb(250,234,213);fill-opacity:1"></path><path d="M-74.3,-2.8L-74.0,5.8L-71.9,-1.2z" style="fill:rgb(260,253,240);fill-opacity:1"></path><path d="M2.7,27.4L63.5,-4.8L63.4,-12.6z" style="fill:rgb(264,256,243);fill-opacity:1"></path><path d="M14.9,36.0L92.8,-5.4L94.4,-9.5z" style="fill:rgb(224,209,191);fill-opacity:1"></path><path d="M-84.8,4.0L-83.4,8.4L-79.4,4.7zM-80.7,4.6L-80.8,8.3L-75.9,3.7z" style="fill:rgb(238,223,203);fill-opacity:1"></path><path d="M90.6,-80.3L93.0,-74.1L93.3,-81.4z" style="fill:rgb(243,227,207);fill-opacity:1"></path><path d="M-72.5,-5.6L-74.0,-3.3L-69.3,-5.9z" style="fill:rgb(275,267,253);fill-opacity:1"></path><path d="M-95.2,-29.5L-94.8,1.6L-92.3,-27.5z" style="fill:rgb(237,221,202);fill-opacity:1"></path><path d="M-73.6,-4.6L-74.4,-1.2L-71.0,-4.0z" style="fill:rgb(274,266,252);fill-opacity:1"></path><path d="M-74.2,-3.9L-71.6,-3.3L-69.5,-6.3z" style="fill:rgb(280,271,258);fill-opacity:1"></path><path d="M60.0,-16.7L-0.4,16.2L63.0,-14.5z" style="fill:rgb(285,276,262);fill-opacity:1"></path><path d="M-74.7,-2.0L-72.1,-0.2L-71.4,-4.6z" style="fill:rgb(273,265,251);fill-opacity:1"></path><path d="M2.6,20.6L63.7,-11.7L62.3,-15.2z" style="fill:rgb(277,269,255);fill-opacity:1"></path><path d="M-93.4,2.3L-83.7,5.2L-84.0,-25.7z" style="fill:rgb(247,231,211);fill-opacity:1"></path><path d="M-86.0,4.8L12.2,34.6L86.0,-5.2z" style="fill:rgb(254,237,217);fill-opacity:1"></path><path d="M79.5,-69.9L79.9,-3.1L85.0,-71.2z" style="fill:rgb(249,233,213);fill-opacity:1"></path><path d="M74.3,-70.6L74.8,-3.7L80.5,-69.9z" style="fill:rgb(253,236,216);fill-opacity:1"></path><path d="M87.3,-83.6L78.0,-78.3L92.1,-79.8z" style="fill:rgb(259,242,221);fill-opacity:1"></path><path d="M-80.8,5.6L-76.2,4.5L-76.7,-26.1z" style="fill:rgb(249,233,213);fill-opacity:1"></path><path d="M83.8,-69.9L93.5,-74.8L91.3,-80.9z" style="fill:rgb(252,235,215);fill-opacity:1"></path><path d="M-92.7,-33.7L-94.6,-30.9L-88.6,-34.2z" style="fill:rgb(250,234,213);fill-opacity:1"></path><path d="M-93.2,-27.9L-92.9,3.0L-83.6,-25.0z" style="fill:rgb(247,231,211);fill-opacity:1"></path><path d="M-84.8,5.0L-79.7,5.5L-80.2,-25.3z" style="fill:rgb(253,236,216);fill-opacity:1"></path><path d="M16.2,33.0L94.2,-8.5L94.1,-38.8z" style="fill:rgb(240,225,205);fill-opacity:1"></path><path d="M-94.2,-32.1L-95.3,-27.9L-90.9,-31.5z" style="fill:rgb(249,233,212);fill-opacity:1"></path><path d="M77.9,-46.4L0.4,-4.6L81.9,-47.1z" style="fill:rgb(243,228,208);fill-opacity:1"></path><path d="M-94.8,-31.4L-91.6,-30.7L-88.8,-34.5z" style="fill:rgb(254,238,217);fill-opacity:1"></path><path d="M-95.6,-28.7L-92.4,-26.5L-91.3,-32.0z" style="fill:rgb(248,232,212);fill-opacity:1"></path><path d="M-90.6,14.8L-90.7,55.0L8.0,44.9z" style="fill:rgb(247,231,211);fill-opacity:1"></path><path d="M78.1,-78.9L82.9,-75.0L92.1,-80.3z" style="fill:rgb(259,242,221);fill-opacity:1"></path><path d="M18.7,82.9L16.4,88.8L92.7,43.5z" style="fill:rgb(224,209,191);fill-opacity:1"></path><path d="M82.3,-75.8L84.4,-69.7L91.9,-80.7z" style="fill:rgb(252,235,215);fill-opacity:1"></path><path d="M-89.7,-34.4L-92.6,-30.8L-80.0,-31.2z" style="fill:rgb(261,244,223);fill-opacity:1"></path><path d="M-71.2,-5.7L0.6,16.1L60.9,-16.5z" style="fill:rgb(279,271,257);fill-opacity:1"></path><path d="M-80.7,-24.7L-80.3,6.0L-76.2,-25.7z" style="fill:rgb(249,233,213);fill-opacity:1"></path><path d="M-84.7,-25.3L-84.3,5.6L-79.7,-24.7z" style="fill:rgb(253,236,216);fill-opacity:1"></path><path d="M81.0,-47.1L3.4,-5.1L90.5,-44.2z" style="fill:rgb(254,237,217);fill-opacity:1"></path><path d="M-92.1,-31.9L-93.3,-26.7L-82.3,-28.6z" style="fill:rgb(258,241,220);fill-opacity:1"></path><path d="M-92.8,-31.4L-83.0,-28.1L-80.2,-31.7zM-85.2,4.4L-89.5,9.4L13.1,34.5z" style="fill:rgb(261,244,223);fill-opacity:1"></path><path d="M78.9,-79.3L75.2,-74.7L83.8,-75.3z" style="fill:rgb(265,248,227);fill-opacity:1"></path><path d="M-93.7,-27.3L-83.8,-24.1L-82.7,-29.2z" style="fill:rgb(258,241,220);fill-opacity:1"></path><path d="M79.2,-68.9L85.2,-70.2L82.9,-76.5z" style="fill:rgb(259,242,221);fill-opacity:1"></path><path d="M-81.1,-32.0L-84.1,-28.2L-77.1,-28.7z" style="fill:rgb(265,248,227);fill-opacity:1"></path><path d="M75.1,-75.3L79.8,-73.2L83.8,-75.9z" style="fill:rgb(263,247,225);fill-opacity:1"></path><path d="M75.7,-75.8L74.3,-69.2L80.6,-73.8z" style="fill:rgb(262,245,223);fill-opacity:1"></path><path d="M79.3,-73.9L79.8,-68.5L83.5,-76.3z" style="fill:rgb(255,239,218);fill-opacity:1"></path><path d="M73.9,-69.8L80.5,-68.9L80.1,-74.5z" style="fill:rgb(261,244,223);fill-opacity:1"></path><path d="M-80.9,-23.7L-76.0,-24.8L-78.0,-29.9z" style="fill:rgb(259,242,221);fill-opacity:1"></path><path d="M-89.0,8.5L-90.8,15.8L9.5,38.7z" style="fill:rgb(258,241,220);fill-opacity:1"></path><path d="M-84.2,-28.8L-80.3,-27.0L-77.1,-29.3z" style="fill:rgb(263,247,225);fill-opacity:1"></path><path d="M-83.6,-29.3L-84.7,-23.9L-79.5,-27.6z" style="fill:rgb(262,245,223);fill-opacity:1"></path><path d="M-80.8,-27.8L-80.4,-23.3L-77.3,-29.7z" style="fill:rgb(255,239,218);fill-opacity:1"></path><path d="M89.6,-44.7L11.9,-2.5L93.4,-41.7z" style="fill:rgb(259,242,221);fill-opacity:1"></path><path d="M-85.1,-24.4L-79.6,-23.7L-80.1,-28.3z" style="fill:rgb(261,244,223);fill-opacity:1"></path><path d="M16.2,3.7L94.4,-37.8L92.8,-42.5z" style="fill:rgb(252,235,215);fill-opacity:1"></path><path d="M-73.1,5.2L-72.1,8.2L-0.7,27.5z" style="fill:rgb(254,247,234);fill-opacity:1"></path><path d="M-89.6,58.9L9.2,89.1L7.3,83.5z" style="fill:rgb(231,216,197);fill-opacity:1"></path><path d="M-72.9,-1.7L-73.0,6.2L-0.7,20.6z" style="fill:rgb(272,264,250);fill-opacity:1"></path><path d="M-70.4,-6.2L-72.6,-3.5L1.5,16.0z" style="fill:rgb(287,279,265);fill-opacity:1"></path><path d="M-72.2,-4.4L-73.1,-0.7L-0.1,17.9z" style="fill:rgb(284,275,261);fill-opacity:1"></path><path d="M18.5,43.8L18.6,84.0L92.6,4.4z" style="fill:rgb(240,225,205);fill-opacity:1"></path><path d="M3.3,26.7L2.0,29.7L63.9,-5.5z" style="fill:rgb(247,239,227);fill-opacity:1"></path><path d="M12.2,114.5L17.6,111.7L17.2,87.0z" style="fill:rgb(77,73,66);fill-opacity:1"></path><path d="M-91.1,54.4L7.5,84.5L7.5,44.3z" style="fill:rgb(247,231,211);fill-opacity:1"></path><path d="M3.1,19.8L3.1,27.7L63.8,-12.4z" style="fill:rgb(264,256,243);fill-opacity:1"></path><path d="M6.1,112.3L13.2,114.4L12.8,89.4z" style="fill:rgb(80,75,68);fill-opacity:1"></path><path d="M-0.3,15.7L2.6,17.9L63.0,-15.0z" style="fill:rgb(285,276,262);fill-opacity:1"></path><path d="M2.0,17.1L3.2,20.8L63.0,-15.0z" style="fill:rgb(277,269,255);fill-opacity:1"></path><path d="M11.3,34.1L16.9,38.5L90.8,-1.6z" style="fill:rgb(259,242,221);fill-opacity:1"></path><path d="M16.4,37.8L18.7,44.9L90.7,-1.7z" style="fill:rgb(252,235,215);fill-opacity:1"></path><path d="M11.2,85.8L5.8,88.9L18.1,88.1z" style="fill:rgb(82,78,71);fill-opacity:1"></path><path d="M6.2,87.9L6.6,113.0L13.3,90.0z" style="fill:rgb(80,75,68);fill-opacity:1"></path><path d="M12.2,90.1L12.6,114.8L17.7,87.3z" style="fill:rgb(77,73,66);fill-opacity:1"></path><path d="M-72.8,7.6L-0.3,29.8L-1.5,26.9z" style="fill:rgb(254,247,234);fill-opacity:1"></path><path d="M5.7,88.5L12.7,90.8L18.1,87.7z" style="fill:rgb(82,78,71);fill-opacity:1"></path><path d="M16.8,32.2L15.2,36.2L94.7,-9.2z" style="fill:rgb(224,209,191);fill-opacity:1"></path><path d="M-73.4,5.6L-1.2,27.8L-1.2,20.0z" style="fill:rgb(272,264,250);fill-opacity:1"></path><path d="M-72.8,-4.1L-0.8,18.2L1.3,15.4z" style="fill:rgb(287,279,265);fill-opacity:1"></path><path d="M11.2,89.2L18.0,87.9L13.1,88.2z" style="fill:rgb(217,203,185);fill-opacity:1"></path><path d="M-89.6,8.9L8.7,39.0L12.9,34.0z" style="fill:rgb(261,244,223);fill-opacity:1"></path><path d="M-73.4,-1.3L-1.3,21.0L-0.5,17.2z" style="fill:rgb(284,275,261);fill-opacity:1"></path><path d="M7.5,88.5L12.3,89.3L14.0,87.9z" style="fill:rgb(217,203,185);fill-opacity:1"></path><path d="M-91.1,15.2L7.4,45.4L9.1,38.1z" style="fill:rgb(258,241,220);fill-opacity:1"></path><path d="M12.3,88.7L17.3,88.5L19.5,82.3z" style="fill:rgb(232,217,198);fill-opacity:1"></path><path d="M0.3,-4.7L4.3,-5.4L81.9,-47.2z" style="fill:rgb(243,228,208);fill-opacity:1"></path><path d="M7.7,88.9L13.7,88.8L13.7,83.6z" style="fill:rgb(241,226,206);fill-opacity:1"></path><path d="M6.4,83.3L8.3,89.4L14.2,84.2zM12.9,84.1L12.7,89.2L19.8,82.7z" style="fill:rgb(238,223,203);fill-opacity:1"></path><path d="M16.6,2.9L16.7,33.3L94.6,-38.6z" style="fill:rgb(240,225,205);fill-opacity:1"></path><path d="M3.3,-5.5L12.8,-2.6L90.4,-44.6z" style="fill:rgb(254,237,217);fill-opacity:1"></path><path d="M-0.4,29.7L3.6,28.9L0.9,29.0z" style="fill:rgb(239,232,220);fill-opacity:1"></path><path d="M12.8,85.1L19.5,83.5L19.0,43.1z" style="fill:rgb(249,233,213);fill-opacity:1"></path><path d="M-2.0,29.3L1.1,29.9L1.3,28.6z" style="fill:rgb(239,232,220);fill-opacity:1"></path><path d="M11.9,-3.1L15.8,-0.1L93.4,-42.3z" style="fill:rgb(259,242,221);fill-opacity:1"></path><path d="M15.2,-0.9L16.8,3.9L93.4,-42.3z" style="fill:rgb(252,235,215);fill-opacity:1"></path><path d="M0.1,29.5L3.1,29.5L4.0,26.1z" style="fill:rgb(256,248,235);fill-opacity:1"></path><path d="M6.5,84.3L13.9,85.0L13.4,44.5z" style="fill:rgb(253,236,216);fill-opacity:1"></path><path d="M-1.9,29.6L1.6,29.6L1.3,26.6z" style="fill:rgb(265,258,244);fill-opacity:1"></path><path d="M-2.4,26.7L-1.2,30.1L1.9,27.2zM0.6,27.1L0.6,30.0L4.4,26.4z" style="fill:rgb(262,254,241);fill-opacity:1"></path><path d="M0.4,28.1L4.0,27.3L3.7,19.1z" style="fill:rgb(274,266,252);fill-opacity:1"></path><path d="M-2.4,27.6L1.6,28.0L1.2,19.7z" style="fill:rgb(278,270,256);fill-opacity:1"></path><path d="M0.6,20.3L0.9,28.5L4.2,19.5z" style="fill:rgb(274,266,252);fill-opacity:1"></path><path d="M-2.2,19.8L-1.9,28.2L1.7,20.2z" style="fill:rgb(278,270,256);fill-opacity:1"></path><path d="M0.5,15.0L-1.9,18.0L3.5,17.6z" style="fill:rgb(292,284,269);fill-opacity:1"></path><path d="M0.4,21.2L4.2,20.4L2.6,16.5z" style="fill:rgb(285,277,263);fill-opacity:1"></path><path d="M-2.0,17.4L1.1,18.9L3.5,17.0z" style="fill:rgb(290,281,267);fill-opacity:1"></path><path d="M-1.4,16.9L-2.2,21.2L1.8,18.3z" style="fill:rgb(288,280,265);fill-opacity:1"></path><path d="M0.5,18.1L0.9,21.6L3.3,16.7z" style="fill:rgb(281,272,258);fill-opacity:1"></path><path d="M-2.6,20.6L1.7,21.2L1.2,17.6z" style="fill:rgb(287,278,264);fill-opacity:1"></path><path d="M12.9,45.1L13.3,85.5L19.5,43.5z" style="fill:rgb(249,233,213);fill-opacity:1"></path><path d="M6.5,44.3L7.0,84.8L13.9,45.0z" style="fill:rgb(253,236,216);fill-opacity:1"></path><path d="M-1.6,28.2L-0.1,32.6L1.7,30.1z" style="fill:rgb(225,211,192);fill-opacity:1"></path><path d="M-0.8,31.7L2.6,34.0L1.2,29.5z" style="fill:rgb(224,209,191);fill-opacity:1"></path><path d="M12.1,33.6L7.7,38.9L17.9,38.3z" style="fill:rgb(265,248,227);fill-opacity:1"></path><path d="M12.6,46.0L19.6,44.5L17.0,37.1z" style="fill:rgb(259,242,221);fill-opacity:1"></path><path d="M7.6,38.3L13.2,40.8L17.9,37.7z" style="fill:rgb(263,247,225);fill-opacity:1"></path><path d="M8.2,37.8L6.5,45.6L14.0,40.2z" style="fill:rgb(262,245,223);fill-opacity:1"></path><path d="M12.7,40.1L13.2,46.4L17.6,37.3z" style="fill:rgb(255,239,218);fill-opacity:1"></path><path d="M6.1,45.1L13.9,46.0L13.5,39.5z" style="fill:rgb(261,244,223);fill-opacity:1"></path><path d="M0.4,29.7L1.7,33.8L10.6,33.0zM1.0,33.2L11.2,36.4L9.9,32.4z" style="fill:rgb(231,216,197);fill-opacity:1"></path><path d="M11.9,36.4L16.8,35.4L13.3,35.5zM9.5,35.9L13.1,36.6L14.0,35.2z" style="fill:rgb(217,203,185);fill-opacity:1"></path><path d="M-1.5,29.1L1.5,31.1L1.1,0.1z" style="fill:rgb(237,221,202);fill-opacity:1"></path><path d="M12.5,36.1L16.2,36.0L17.5,31.6z" style="fill:rgb(232,217,198);fill-opacity:1"></path><path d="M9.7,36.2L14.0,36.2L13.8,32.5z" style="fill:rgb(241,226,206);fill-opacity:1"></path><path d="M8.9,32.4L10.3,36.7L14.4,33.0zM13.1,32.9L13.0,36.6L17.9,32.0z" style="fill:rgb(238,223,203);fill-opacity:1"></path><path d="M-1.4,-1.1L-1.0,29.9L1.5,0.8z" style="fill:rgb(237,221,202);fill-opacity:1"></path><path d="M0.4,30.6L10.1,33.5L9.7,2.7z" style="fill:rgb(247,231,211);fill-opacity:1"></path><path d="M13.0,33.9L17.5,32.8L17.1,2.2z" style="fill:rgb(249,233,213);fill-opacity:1"></path><path d="M1.0,-5.4L-0.8,-2.6L5.2,-5.9z" style="fill:rgb(250,234,213);fill-opacity:1"></path><path d="M0.6,0.4L0.9,31.3L10.2,3.3z" style="fill:rgb(247,231,211);fill-opacity:1"></path><path d="M9.0,33.3L14.0,33.9L13.6,3.0z" style="fill:rgb(253,236,216);fill-opacity:1"></path><path d="M-0.4,-3.8L-1.5,0.5L2.9,-3.1z" style="fill:rgb(249,233,212);fill-opacity:1"></path><path d="M-1.0,-3.1L2.2,-2.4L5.0,-6.2z" style="fill:rgb(254,238,217);fill-opacity:1"></path><path d="M-1.8,-0.3L1.4,1.8L2.5,-3.7z" style="fill:rgb(248,232,212);fill-opacity:1"></path><path d="M4.1,-6.1L1.2,-2.5L13.8,-2.8z" style="fill:rgb(261,244,223);fill-opacity:1"></path><path d="M13.1,3.7L13.5,34.3L17.6,2.6z" style="fill:rgb(249,233,213);fill-opacity:1"></path><path d="M9.1,3.1L9.5,33.9L14.1,3.6z" style="fill:rgb(253,236,216);fill-opacity:1"></path><path d="M1.6,-3.5L0.5,1.6L11.5,-0.3z" style="fill:rgb(258,241,220);fill-opacity:1"></path><path d="M1.0,-3.0L10.7,0.2L13.6,-3.4z" style="fill:rgb(261,244,223);fill-opacity:1"></path><path d="M0.1,1.0L10.0,4.3L11.1,-0.9z" style="fill:rgb(258,241,220);fill-opacity:1"></path><path d="M12.7,-3.7L9.7,0.1L16.7,-0.4z" style="fill:rgb(265,248,227);fill-opacity:1"></path><path d="M12.8,4.6L17.7,3.5L15.8,-1.5z" style="fill:rgb(259,242,221);fill-opacity:1"></path><path d="M9.6,-0.5L13.5,1.3L16.7,-1.0z" style="fill:rgb(263,247,225);fill-opacity:1"></path><path d="M10.2,-1.0L9.1,4.4L14.2,0.7z" style="fill:rgb(262,245,223);fill-opacity:1"></path><path d="M12.9,0.6L13.4,5.0L16.4,-1.3z" style="fill:rgb(255,239,218);fill-opacity:1"></path><path d="M8.7,3.9L14.1,4.6L13.7,0.0z" style="fill:rgb(261,244,223);fill-opacity:1"></path></svg>
