<svg viewBox="-160 -160 320 320" width="320" height="320" xmlns="http://www.w3.org/2000/svg" role="img" aria-label="Armoire compacte · 80 cm · modèle générique"><path d="M-17.2,90.1L-13.7,88.4L-14.1,76.4z" style="fill:rgb(77,73,66);fill-opacity:1"></path><path d="M-20.6,88.7L-16.1,90.1L-16.5,77.7z" style="fill:rgb(80,75,68);fill-opacity:1"></path><path d="M-17.5,76.0L-20.9,78.0L-13.2,77.5z" style="fill:rgb(82,78,71);fill-opacity:1"></path><path d="M-20.4,77.1L-20.1,89.4L-16.0,78.4z" style="fill:rgb(80,75,68);fill-opacity:1"></path><path d="M-17.1,78.4L-16.7,90.4L-13.7,76.7z" style="fill:rgb(77,73,66);fill-opacity:1"></path><path d="M-20.9,77.6L-16.6,79.2L-13.3,77.1z" style="fill:rgb(82,78,71);fill-opacity:1"></path><path d="M-49.4,107.5L-46.0,105.7L-46.4,93.7z" style="fill:rgb(77,73,66);fill-opacity:1"></path><path d="M-52.8,106.1L-48.4,107.4L-48.7,95.1z" style="fill:rgb(80,75,68);fill-opacity:1"></path><path d="M-49.7,93.3L-53.1,95.3L-45.5,94.8z" style="fill:rgb(82,78,71);fill-opacity:1"></path><path d="M-52.6,94.4L-52.3,106.7L-48.3,95.7z" style="fill:rgb(80,75,68);fill-opacity:1"></path><path d="M-49.3,95.8L-49.0,107.7L-45.9,94.0z" style="fill:rgb(77,73,66);fill-opacity:1"></path><path d="M-53.1,94.9L-48.8,96.5L-45.5,94.4z" style="fill:rgb(82,78,71);fill-opacity:1"></path><path d="M-56.9,93.8L-56.0,95.9L-55.4,94.4z" style="fill:rgb(207,180,139);fill-opacity:1"></path><path d="M-56.8,95.0L-55.1,95.9L-55.9,93.9z" style="fill:rgb(205,179,138);fill-opacity:1"></path><path d="M-56.6,93.9L-55.6,95.6L-55.4,94.3z" style="fill:rgb(207,180,139);fill-opacity:1"></path><path d="M-56.6,94.8L-55.0,95.5L-55.8,93.8z" style="fill:rgb(205,179,138);fill-opacity:1"></path><path d="M49.2,110.2L52.6,108.4L52.3,96.5z" style="fill:rgb(77,73,66);fill-opacity:1"></path><path d="M45.8,108.8L50.2,110.1L49.9,97.8z" style="fill:rgb(80,75,68);fill-opacity:1"></path><path d="M48.9,96.1L45.5,98.1L53.1,97.6z" style="fill:rgb(82,78,71);fill-opacity:1"></path><path d="M55.5,98.1L56.8,96.8L56.0,95.5z" style="fill:rgb(202,175,136);fill-opacity:1"></path><path d="M46.0,97.1L46.3,109.4L50.3,98.4z" style="fill:rgb(80,75,68);fill-opacity:1"></path><path d="M56.0,96.6L55.5,98.1L56.8,95.5z" style="fill:rgb(199,173,134);fill-opacity:1"></path><path d="M49.3,98.5L49.6,110.4L52.7,96.7z" style="fill:rgb(77,73,66);fill-opacity:1"></path><path d="M45.5,97.7L49.8,99.2L53.1,97.1z" style="fill:rgb(82,78,71);fill-opacity:1"></path><path d="M-56.5,94.0L-56.1,95.1L-19.2,105.7zM-56.7,94.5L-19.2,106.0L-20.1,105.3zM-56.5,94.1L-56.1,95.5L18.3,117.1z" style="fill:rgb(212,184,143);fill-opacity:1"></path><path d="M17.6,117.8L56.6,97.3L56.2,96.0z" style="fill:rgb(205,179,138);fill-opacity:1"></path><path d="M-19.7,106.2L-18.5,104.5L-19.4,104.9z" style="fill:rgb(202,175,136);fill-opacity:1"></path><path d="M-19.3,105.1L-19.7,106.2L-18.6,104.2z" style="fill:rgb(199,173,134);fill-opacity:1"></path><path d="M-20.4,106.2L-18.4,105.0L-19.4,104.8zM-19.9,105.0L-20.2,106.4L-18.4,104.6z" style="fill:rgb(205,179,138);fill-opacity:1"></path><path d="M-20.8,106.0L-18.7,105.4L-20.0,105.3zM-21.0,105.6L-18.9,105.7L-19.9,105.4z" style="fill:rgb(199,173,134);fill-opacity:1"></path><path d="M-20.6,106.0L-18.7,105.7L-19.8,104.7z" style="fill:rgb(213,185,144);fill-opacity:1"></path><path d="M-20.8,106.0L-18.9,105.7L-20.1,104.9z" style="fill:rgb(221,192,149);fill-opacity:1"></path><path d="M-20.8,104.9L-19.9,106.5L-19.3,104.9zM-20.3,104.9L-20.1,106.5L-19.0,104.9z" style="fill:rgb(218,190,147);fill-opacity:1"></path><path d="M-19.2,105.2L-18.3,106.9L-18.0,105.5z" style="fill:rgb(207,180,139);fill-opacity:1"></path><path d="M-19.2,106.0L-17.6,106.8L-18.4,105.1z" style="fill:rgb(205,179,138);fill-opacity:1"></path><path d="M-56.7,94.6L-55.5,95.5L-55.9,-107.8zM-56.4,94.7L-55.4,95.4L-55.8,-107.7z" style="fill:rgb(217,189,147);fill-opacity:1"></path><path d="M-56.7,94.9L18.4,117.8L17.5,116.6z" style="fill:rgb(212,184,143);fill-opacity:1"></path><path d="M55.8,97.6L56.5,96.4L56.3,-106.1z" style="fill:rgb(208,181,140);fill-opacity:1"></path><path d="M-19.1,105.3L-18.7,106.4L18.2,117.0z" style="fill:rgb(212,184,143);fill-opacity:1"></path><path d="M18.4,116.5L17.8,118.0L57.0,96.2z" style="fill:rgb(205,179,138);fill-opacity:1"></path><path d="M16.9,127.5L20.4,125.7L20.0,113.8z" style="fill:rgb(77,73,66);fill-opacity:1"></path><path d="M-19.3,105.8L18.2,117.3L17.3,116.5z" style="fill:rgb(212,184,143);fill-opacity:1"></path><path d="M-18.0,-128.0L-19.4,-127.9L-16.5,-128.1z" style="fill:rgb(218,190,148);fill-opacity:1"></path><path d="M13.5,126.1L18.0,127.4L17.6,115.1z" style="fill:rgb(80,75,68);fill-opacity:1"></path><path d="M16.6,113.4L13.3,115.4L20.9,114.9z" style="fill:rgb(82,78,71);fill-opacity:1"></path><path d="M13.7,114.4L14.0,126.8L18.1,115.7z" style="fill:rgb(80,75,68);fill-opacity:1"></path><path d="M17.0,115.8L17.4,127.8L20.5,114.0z" style="fill:rgb(77,73,66);fill-opacity:1"></path><path d="M13.2,115.0L17.5,116.5L20.8,114.4z" style="fill:rgb(82,78,71);fill-opacity:1"></path><path d="M-56.4,94.9L-19.6,106.0L-20.0,-96.9z" style="fill:rgb(227,197,153);fill-opacity:1"></path><path d="M18.1,117.5L56.5,96.9L56.2,-105.8z" style="fill:rgb(220,192,149);fill-opacity:1"></path><path d="M17.7,117.5L18.8,115.8L18.0,116.2z" style="fill:rgb(202,175,136);fill-opacity:1"></path><path d="M18.1,116.3L17.7,117.5L18.8,115.5zM17.0,117.7L19.4,117.1L17.9,117.1zM16.5,117.4L18.9,117.5L18.0,117.1z" style="fill:rgb(199,173,134);fill-opacity:1"></path><path d="M16.9,117.5L19.0,116.3L18.0,116.1z" style="fill:rgb(205,179,138);fill-opacity:1"></path><path d="M17.2,117.7L19.2,117.7L18.8,115.9z" style="fill:rgb(213,185,144);fill-opacity:1"></path><path d="M17.5,116.3L17.2,117.7L19.0,115.9z" style="fill:rgb(205,179,138);fill-opacity:1"></path><path d="M16.6,117.3L18.7,116.7L17.4,116.6zM16.3,116.9L18.5,117.0L17.5,116.7z" style="fill:rgb(199,173,134);fill-opacity:1"></path><path d="M16.7,117.7L18.9,117.6L18.0,116.2z" style="fill:rgb(221,192,149);fill-opacity:1"></path><path d="M16.8,117.3L18.6,117.0L17.6,116.0z" style="fill:rgb(213,185,144);fill-opacity:1"></path><path d="M16.7,116.3L17.5,118.3L18.7,116.5z" style="fill:rgb(218,190,147);fill-opacity:1"></path><path d="M16.6,117.3L18.5,117.0L17.3,116.1z" style="fill:rgb(221,192,149);fill-opacity:1"></path><path d="M17.6,116.4L17.7,118.2L19.4,116.3zM16.6,116.2L17.4,117.8L18.1,116.2zM17.1,116.2L17.3,117.8L18.4,116.1z" style="fill:rgb(218,190,147);fill-opacity:1"></path><path d="M-19.5,106.0L-18.9,105.1L-19.1,-97.2z" style="fill:rgb(208,181,140);fill-opacity:1"></path><path d="M-20.1,106.1L-18.8,105.4L-19.2,-97.1z" style="fill:rgb(220,192,149);fill-opacity:1"></path><path d="M-20.3,106.0L-19.1,105.7L-19.6,-96.9z" style="fill:rgb(228,199,154);fill-opacity:1"></path><path d="M-20.6,105.8L-19.4,106.0L-19.9,-96.9z" style="fill:rgb(232,202,157);fill-opacity:1"></path><path d="M-19.0,106.0L-18.0,106.7L-18.4,-96.4z" style="fill:rgb(217,189,147);fill-opacity:1"></path><path d="M-18.5,-128.1L-56.8,-107.4L-17.0,-128.4z" style="fill:rgb(223,194,151);fill-opacity:1"></path><path d="M-56.7,-107.8L-56.3,95.4L-55.5,-107.0zM-56.4,-107.5L-56.0,95.5L-55.4,-106.9z" style="fill:rgb(217,189,147);fill-opacity:1"></path><path d="M-17.5,-128.1L-18.9,-128.2L56.7,-105.6z" style="fill:rgb(221,192,149);fill-opacity:1"></path><path d="M-56.6,95.0L17.8,117.5L17.6,-85.6z" style="fill:rgb(227,197,153);fill-opacity:1"></path><path d="M55.8,-104.9L56.1,97.6L56.6,-106.0z" style="fill:rgb(208,181,140);fill-opacity:1"></path><path d="M-56.3,-107.3L-55.9,95.6L-19.5,-96.2z" style="fill:rgb(227,197,153);fill-opacity:1"></path><path d="M-26.5,-6.6L-24.1,-7.8L-24.5,-22.9z" style="fill:rgb(77,73,66);fill-opacity:1"></path><path d="M-27.8,-7.3L-25.5,-6.6L-25.9,-22.2z" style="fill:rgb(80,75,68);fill-opacity:1"></path><path d="M-19.0,106.2L17.7,117.3L17.4,-85.6z" style="fill:rgb(227,197,153);fill-opacity:1"></path><path d="M-27.7,-22.2L-27.3,-6.7L-25.4,-21.5z" style="fill:rgb(80,75,68);fill-opacity:1"></path><path d="M-26.4,-21.5L-26.0,-6.3L-24.1,-22.7z" style="fill:rgb(77,73,66);fill-opacity:1"></path><path d="M-56.8,-107.5L-55.3,-107.8L-17.0,-128.5z" style="fill:rgb(223,194,151);fill-opacity:1"></path><path d="M-25.9,-22.8L-28.2,-21.3L-23.6,-21.9zM-28.2,-21.7L-25.8,-20.7L-23.7,-22.4z" style="fill:rgb(82,78,71);fill-opacity:1"></path><path d="M-18.0,-128.4L-56.3,-107.7L56.3,-105.8z" style="fill:rgb(233,203,158);fill-opacity:1"></path><path d="M-56.4,-107.4L-56.1,95.6L18.0,-85.0z" style="fill:rgb(227,197,153);fill-opacity:1"></path><path d="M-18.9,-128.3L56.1,-105.4L55.9,-106.1z" style="fill:rgb(221,192,149);fill-opacity:1"></path><path d="M17.9,117.3L18.5,116.4L18.2,-85.9z" style="fill:rgb(208,181,140);fill-opacity:1"></path><path d="M17.3,117.4L18.6,116.7L18.2,-85.8z" style="fill:rgb(220,192,149);fill-opacity:1"></path><path d="M17.0,117.3L18.2,117.0L17.8,-85.6zM17.6,117.5L19.2,117.1L18.7,-85.7z" style="fill:rgb(228,199,154);fill-opacity:1"></path><path d="M16.8,117.1L18.0,117.3L17.5,-85.6zM16.9,117.3L18.6,117.4L18.1,-85.6z" style="fill:rgb(232,202,157);fill-opacity:1"></path><path d="M-19.5,-96.2L-19.2,106.1L-18.9,-97.2z" style="fill:rgb(208,181,140);fill-opacity:1"></path><path d="M-20.1,-96.2L-19.6,106.4L-18.8,-96.9z" style="fill:rgb(220,192,149);fill-opacity:1"></path><path d="M-20.3,-96.2L-19.9,106.4L-19.1,-96.5z" style="fill:rgb(228,199,154);fill-opacity:1"></path><path d="M-20.6,-96.4L-20.1,106.4L-19.4,-96.3z" style="fill:rgb(232,202,157);fill-opacity:1"></path><path d="M-19.0,-96.2L-18.6,106.8L-18.0,-95.6z" style="fill:rgb(217,189,147);fill-opacity:1"></path><path d="M-55.2,-107.3L-56.4,-107.2L-54.0,-107.4z" style="fill:rgb(218,190,148);fill-opacity:1"></path><path d="M-55.4,-107.5L-56.7,-106.6L-54.2,-107.6z" style="fill:rgb(223,194,151);fill-opacity:1"></path><path d="M-56.1,-108.3L-56.8,-106.8L-54.5,-108.3z" style="fill:rgb(229,200,155);fill-opacity:1"></path><path d="M-56.7,-106.6L-54.9,-106.7L-55.0,-108.1z" style="fill:rgb(223,194,151);fill-opacity:1"></path><path d="M-56.4,-108.2L-56.7,-106.2L-55.0,-107.8z" style="fill:rgb(228,199,154);fill-opacity:1"></path><path d="M-57.0,-107.3L-55.2,-106.9L-55.0,-108.7z" style="fill:rgb(233,203,158);fill-opacity:1"></path><path d="M-57.1,-107.0L-55.4,-106.0L-55.5,-108.3z" style="fill:rgb(228,198,154);fill-opacity:1"></path><path d="M-56.0,-107.5L-56.5,-106.2L-54.8,-107.4z" style="fill:rgb(229,200,155);fill-opacity:1"></path><path d="M-56.2,-107.5L-56.4,-105.8L-55.0,-107.2z" style="fill:rgb(228,199,154);fill-opacity:1"></path><path d="M-56.7,-106.7L-54.9,-106.5L-55.7,-107.7z" style="fill:rgb(233,203,158);fill-opacity:1"></path><path d="M-56.7,-106.7L-55.1,-106.0L-55.7,-107.7z" style="fill:rgb(228,198,154);fill-opacity:1"></path><path d="M55.9,-106.2L54.4,-106.1L56.9,-105.1z" style="fill:rgb(225,196,152);fill-opacity:1"></path><path d="M55.9,-103.9L57.0,-105.5L55.5,-106.2z" style="fill:rgb(217,189,147);fill-opacity:1"></path><path d="M54.5,-106.3L56.5,-104.7L56.4,-106.0z" style="fill:rgb(229,199,155);fill-opacity:1"></path><path d="M-18.9,-96.0L-18.5,106.9L17.8,-84.9z" style="fill:rgb(227,197,153);fill-opacity:1"></path><path d="M55.3,-105.8L56.3,-103.9L56.5,-106.3z" style="fill:rgb(223,194,150);fill-opacity:1"></path><path d="M18.2,-85.0L18.6,117.7L56.6,-105.6z" style="fill:rgb(220,192,149);fill-opacity:1"></path><path d="M10.9,4.7L13.3,3.5L12.9,-11.6z" style="fill:rgb(77,73,66);fill-opacity:1"></path><path d="M-55.0,-107.4L-56.2,-107.5L-18.4,-96.2z" style="fill:rgb(221,192,149);fill-opacity:1"></path><path d="M-55.2,-107.7L-56.5,-107.0L-18.5,-96.3z" style="fill:rgb(233,203,158);fill-opacity:1"></path><path d="M9.6,4.0L11.9,4.6L11.5,-10.9z" style="fill:rgb(80,75,68);fill-opacity:1"></path><path d="M-55.8,-107.6L-56.6,-106.7L-19.0,-96.0z" style="fill:rgb(240,209,162);fill-opacity:1"></path><path d="M-56.1,-107.6L-56.4,-106.3L-19.1,-95.9z" style="fill:rgb(237,206,160);fill-opacity:1"></path><path d="M9.6,-10.9L10.1,4.6L12.0,-10.3z" style="fill:rgb(80,75,68);fill-opacity:1"></path><path d="M11.0,-10.2L11.4,5.0L13.3,-11.4z" style="fill:rgb(77,73,66);fill-opacity:1"></path><path d="M11.5,-11.5L9.2,-10.0L13.8,-10.6zM9.1,-10.4L11.5,-9.4L13.7,-11.1z" style="fill:rgb(82,78,71);fill-opacity:1"></path><path d="M-56.1,-107.6L-18.5,-96.2L-19.3,-96.6z" style="fill:rgb(221,192,149);fill-opacity:1"></path><path d="M-56.6,-107.4L-19.4,-95.7L-19.1,-96.9z" style="fill:rgb(233,203,158);fill-opacity:1"></path><path d="M-56.7,-107.2L-19.2,-95.6L-19.8,-96.5z" style="fill:rgb(240,209,162);fill-opacity:1"></path><path d="M-56.8,-106.9L-19.3,-95.4L-19.9,-96.3z" style="fill:rgb(237,206,160);fill-opacity:1"></path><path d="M-55.5,-108.5L-56.6,-107.3L18.9,-85.5z" style="fill:rgb(240,209,162);fill-opacity:1"></path><path d="M-56.1,-108.1L-56.5,-106.4L18.5,-85.1z" style="fill:rgb(237,206,160);fill-opacity:1"></path><path d="M-56.3,-108.1L18.0,-85.4L56.3,-106.2z" style="fill:rgb(233,203,158);fill-opacity:1"></path><path d="M55.4,-106.5L17.0,-85.4L56.7,-105.4z" style="fill:rgb(237,207,161);fill-opacity:1"></path><path d="M17.8,-84.3L57.0,-104.8L55.9,-106.0z" style="fill:rgb(231,201,156);fill-opacity:1"></path><path d="M17.9,-84.9L18.2,117.4L18.5,-85.9z" style="fill:rgb(208,181,140);fill-opacity:1"></path><path d="M17.3,-84.9L17.8,117.6L18.6,-85.6z" style="fill:rgb(220,192,149);fill-opacity:1"></path><path d="M17.0,-84.9L17.5,117.7L18.2,-85.2z" style="fill:rgb(228,199,154);fill-opacity:1"></path><path d="M16.8,-85.1L17.3,117.7L18.0,-85.0z" style="fill:rgb(232,202,157);fill-opacity:1"></path><path d="M17.6,-85.0L18.1,117.9L19.2,-85.4z" style="fill:rgb(228,199,154);fill-opacity:1"></path><path d="M16.9,-85.2L17.4,117.8L18.6,-85.0z" style="fill:rgb(232,202,157);fill-opacity:1"></path><path d="M-19.1,-96.9L-20.5,-96.7L-18.4,-95.9z" style="fill:rgb(225,196,152);fill-opacity:1"></path><path d="M-19.3,-95.2L-18.5,-97.0L-19.8,-96.6z" style="fill:rgb(217,189,147);fill-opacity:1"></path><path d="M-20.4,-96.9L-18.6,-95.7L-19.0,-96.7z" style="fill:rgb(229,199,155);fill-opacity:1"></path><path d="M-19.9,-96.7L-19.0,-95.2L-18.8,-97.1z" style="fill:rgb(223,194,150);fill-opacity:1"></path><path d="M-19.4,-97.1L-20.8,-95.9L-18.5,-96.2z" style="fill:rgb(237,207,161);fill-opacity:1"></path><path d="M-20.2,-95.2L-18.3,-96.4L-19.6,-96.9z" style="fill:rgb(231,201,156);fill-opacity:1"></path><path d="M-20.8,-96.5L-19.3,-95.4L-18.8,-97.0z" style="fill:rgb(237,207,161);fill-opacity:1"></path><path d="M-20.3,-96.5L-19.6,-94.9L-18.7,-97.0z" style="fill:rgb(231,201,156);fill-opacity:1"></path><path d="M-20.0,-97.0L-20.8,-95.5L-18.9,-96.1z" style="fill:rgb(244,212,165);fill-opacity:1"></path><path d="M-20.5,-95.3L-18.7,-95.9L-20.1,-96.8z" style="fill:rgb(238,207,161);fill-opacity:1"></path><path d="M-21.0,-96.1L-19.0,-95.5L-19.6,-96.7z" style="fill:rgb(242,211,164);fill-opacity:1"></path><path d="M-20.4,-96.8L-20.5,-95.0L-19.2,-96.3z" style="fill:rgb(240,209,163);fill-opacity:1"></path><path d="M-20.4,-96.4L-19.9,-94.9L-19.2,-96.8z" style="fill:rgb(234,204,158);fill-opacity:1"></path><path d="M-20.9,-95.5L-18.9,-95.6L-20.0,-96.7z" style="fill:rgb(239,208,162);fill-opacity:1"></path><path d="M-17.8,-96.0L-19.0,-95.9L-16.7,-96.1z" style="fill:rgb(218,190,148);fill-opacity:1"></path><path d="M-18.1,-96.2L-19.3,-95.3L-16.9,-96.3zM-19.3,-95.4L-17.5,-95.4L-17.7,-96.8z" style="fill:rgb(223,194,151);fill-opacity:1"></path><path d="M-18.6,-96.2L-19.2,-94.9L-17.4,-96.1z" style="fill:rgb(229,200,155);fill-opacity:1"></path><path d="M-18.8,-96.3L-19.0,-94.6L-17.6,-95.9z" style="fill:rgb(228,199,154);fill-opacity:1"></path><path d="M-19.4,-95.4L-17.5,-95.3L-18.3,-96.5z" style="fill:rgb(233,203,158);fill-opacity:1"></path><path d="M-19.4,-95.4L-17.8,-94.7L-18.3,-96.4z" style="fill:rgb(228,198,154);fill-opacity:1"></path><path d="M-17.6,-96.1L-18.8,-96.2L19.0,-84.9z" style="fill:rgb(221,192,149);fill-opacity:1"></path><path d="M-17.8,-96.4L-19.1,-95.7L18.9,-85.0z" style="fill:rgb(233,203,158);fill-opacity:1"></path><path d="M-56.7,-107.8L18.1,-84.7L18.3,-86.2z" style="fill:rgb(240,209,162);fill-opacity:1"></path><path d="M-56.9,-107.1L18.0,-84.1L17.8,-85.7z" style="fill:rgb(237,206,160);fill-opacity:1"></path><path d="M-18.4,-96.3L-19.2,-95.4L18.4,-84.7z" style="fill:rgb(240,209,162);fill-opacity:1"></path><path d="M-18.7,-96.3L-19.0,-95.0L18.3,-84.6z" style="fill:rgb(237,206,160);fill-opacity:1"></path><path d="M17.1,-85.9L18.4,-84.9L56.8,-106.0z" style="fill:rgb(237,207,161);fill-opacity:1"></path><path d="M17.9,-85.7L18.4,-84.0L56.8,-106.0z" style="fill:rgb(231,201,156);fill-opacity:1"></path><path d="M-18.8,-96.3L18.8,-84.9L18.1,-85.3z" style="fill:rgb(221,192,149);fill-opacity:1"></path><path d="M-19.2,-96.1L18.0,-84.4L18.3,-85.6z" style="fill:rgb(233,203,158);fill-opacity:1"></path><path d="M-19.3,-95.9L18.2,-84.4L17.6,-85.2z" style="fill:rgb(240,209,162);fill-opacity:1"></path><path d="M-19.4,-95.7L18.1,-84.1L17.5,-85.1z" style="fill:rgb(237,206,160);fill-opacity:1"></path><path d="M18.2,-85.6L16.9,-85.4L19.0,-84.6z" style="fill:rgb(225,196,152);fill-opacity:1"></path><path d="M18.1,-83.9L18.9,-85.7L17.6,-85.3z" style="fill:rgb(217,189,147);fill-opacity:1"></path><path d="M17.0,-85.6L18.8,-84.4L18.3,-85.4z" style="fill:rgb(229,199,155);fill-opacity:1"></path><path d="M17.5,-85.4L18.4,-83.9L18.6,-85.8z" style="fill:rgb(223,194,150);fill-opacity:1"></path><path d="M18.0,-85.8L16.6,-84.6L18.9,-84.9z" style="fill:rgb(237,207,161);fill-opacity:1"></path><path d="M17.1,-83.9L19.1,-85.1L17.8,-85.6z" style="fill:rgb(231,201,156);fill-opacity:1"></path><path d="M16.6,-85.2L18.0,-84.1L18.6,-85.7z" style="fill:rgb(237,207,161);fill-opacity:1"></path><path d="M17.1,-85.2L17.8,-83.6L18.7,-85.8z" style="fill:rgb(231,201,156);fill-opacity:1"></path><path d="M17.4,-85.7L16.6,-84.2L18.5,-84.8z" style="fill:rgb(244,212,165);fill-opacity:1"></path><path d="M16.9,-84.0L18.7,-84.6L17.3,-85.5z" style="fill:rgb(238,207,161);fill-opacity:1"></path><path d="M17.9,-86.5L16.7,-84.8L19.3,-85.2z" style="fill:rgb(244,212,165);fill-opacity:1"></path><path d="M16.4,-84.9L18.4,-84.2L17.8,-85.4z" style="fill:rgb(242,211,164);fill-opacity:1"></path><path d="M17.0,-85.5L16.9,-83.7L18.2,-85.0z" style="fill:rgb(240,209,163);fill-opacity:1"></path><path d="M17.0,-85.1L17.5,-83.6L18.2,-85.5z" style="fill:rgb(234,204,158);fill-opacity:1"></path><path d="M16.4,-84.3L18.5,-84.3L17.4,-85.4z" style="fill:rgb(239,208,162);fill-opacity:1"></path><path d="M17.4,-84.0L19.5,-84.5L18.2,-86.2z" style="fill:rgb(238,207,161);fill-opacity:1"></path><path d="M16.6,-85.4L18.5,-84.5L18.9,-86.0z" style="fill:rgb(242,211,164);fill-opacity:1"></path><path d="M17.2,-86.0L16.9,-83.8L18.8,-85.3z" style="fill:rgb(240,209,163);fill-opacity:1"></path><path d="M17.5,-85.5L17.9,-83.6L19.1,-86.1z" style="fill:rgb(234,204,158);fill-opacity:1"></path><path d="M16.5,-84.4L18.9,-84.2L18.1,-85.9z" style="fill:rgb(239,208,162);fill-opacity:1"></path></svg>
