<svg viewBox="-160 -160 320 320" width="320" height="320" xmlns="http://www.w3.org/2000/svg" role="img" aria-label="Chaise de repas · tissu · modèle générique"><path d="M-6.0,66.5L-0.1,63.3L-0.6,-22.4z" style="fill:rgb(77,73,66);fill-opacity:1"></path><path d="M-12.7,64.1L-5.1,66.4L-5.5,-19.7zM-12.7,-21.3L-12.2,64.7L-5.0,-19.1z" style="fill:rgb(80,75,68);fill-opacity:1"></path><path d="M-6.0,-19.0L-5.6,66.7L-0.1,-22.1z" style="fill:rgb(77,73,66);fill-opacity:1"></path><path d="M-8.2,-37.8L-10.8,-37.6L-5.3,-37.9z" style="fill:rgb(238,223,203);fill-opacity:1"></path><path d="M-7.2,-23.8L-13.1,-20.4L0.4,-21.2zM-13.2,-20.8L-5.5,-18.3L0.3,-21.7z" style="fill:rgb(82,78,71);fill-opacity:1"></path><path d="M-15.0,-41.9L-13.9,-38.7L-12.6,-40.6z" style="fill:rgb(225,211,192);fill-opacity:1"></path><path d="M-14.6,-39.6L-12.1,-38.0L-13.1,-41.2z" style="fill:rgb(224,209,191);fill-opacity:1"></path><path d="M-6.3,-38.0L-8.8,-38.2L79.8,-11.9z" style="fill:rgb(241,225,205);fill-opacity:1"></path><path d="M-14.8,-40.9L-12.8,-39.6L-13.2,-118.2z" style="fill:rgb(237,221,202);fill-opacity:1"></path><path d="M-13.9,-41.0L-13.1,-38.4L73.8,-14.1z" style="fill:rgb(231,216,197);fill-opacity:1"></path><path d="M-9.9,-37.8L-80.2,0.1L-6.9,-38.3z" style="fill:rgb(243,228,208);fill-opacity:1"></path><path d="M-14.8,-118.8L-14.4,-40.1L-12.8,-117.4z" style="fill:rgb(237,221,202);fill-opacity:1"></path><path d="M67.8,88.7L73.6,85.6L73.2,-0.1z" style="fill:rgb(77,73,66);fill-opacity:1"></path><path d="M61.1,86.4L68.7,88.7L68.3,2.6z" style="fill:rgb(80,75,68);fill-opacity:1"></path><path d="M-8.3,-122.6L-10.6,-122.4L-5.7,-122.7z" style="fill:rgb(238,223,203);fill-opacity:1"></path><path d="M-9.6,-122.6L-14.0,-120.1L-7.0,-123.0z" style="fill:rgb(243,228,208);fill-opacity:1"></path><path d="M-8.8,-38.3L77.3,-12.2L79.8,-12.0z" style="fill:rgb(241,225,205);fill-opacity:1"></path><path d="M-14.1,-120.3L-11.4,-120.7L-7.0,-123.2z" style="fill:rgb(243,228,208);fill-opacity:1"></path><path d="M-13.3,-120.9L-14.6,-118.9L-10.5,-121.2z" style="fill:rgb(250,234,213);fill-opacity:1"></path><path d="M-14.2,-120.2L-14.9,-117.2L-11.9,-119.6z" style="fill:rgb(249,233,212);fill-opacity:1"></path><path d="M-14.8,-119.4L-12.5,-118.9L-10.8,-121.5z" style="fill:rgb(254,238,217);fill-opacity:1"></path><path d="M-15.2,-118.0L-12.9,-116.4L-12.3,-120.2z" style="fill:rgb(248,232,212);fill-opacity:1"></path><path d="M61.1,0.9L61.6,87.0L68.7,3.2z" style="fill:rgb(80,75,68);fill-opacity:1"></path><path d="M67.8,3.3L68.2,89.0L73.7,0.2z" style="fill:rgb(77,73,66);fill-opacity:1"></path><path d="M-13.7,-39.0L74.1,-12.1L73.1,-14.7z" style="fill:rgb(231,216,197);fill-opacity:1"></path><path d="M-7.8,-38.4L-78.3,-0.4L78.3,-12.2z" style="fill:rgb(254,237,217);fill-opacity:1"></path><path d="M-13.7,-117.9L-13.7,-39.6L73.7,-91.3z" style="fill:rgb(247,231,211);fill-opacity:1"></path><path d="M66.5,-1.5L60.7,1.9L74.2,1.0z" style="fill:rgb(82,78,71);fill-opacity:1"></path><path d="M78.8,1.2L80.4,-0.8L81.2,-3.7z" style="fill:rgb(220,206,188);fill-opacity:1"></path><path d="M-67.0,99.2L-61.2,96.1L-61.6,10.4z" style="fill:rgb(77,73,66);fill-opacity:1"></path><path d="M80.1,-1.8L78.9,1.3L81.3,-3.6z" style="fill:rgb(217,203,185);fill-opacity:1"></path><path d="M-6.6,-122.7L-8.9,-123.0L80.4,-96.4z" style="fill:rgb(241,225,205);fill-opacity:1"></path><path d="M79.8,-0.8L81.1,-2.7L80.9,-10.3z" style="fill:rgb(227,212,193);fill-opacity:1"></path><path d="M60.6,1.5L68.3,4.0L74.1,0.6z" style="fill:rgb(82,78,71);fill-opacity:1"></path><path d="M-80.3,-0.0L-77.3,-0.5L-6.9,-38.5z" style="fill:rgb(243,228,208);fill-opacity:1"></path><path d="M-73.7,96.8L-66.1,99.1L-66.5,13.1z" style="fill:rgb(80,75,68);fill-opacity:1"></path><path d="M79.9,-8.3L80.1,-0.7L81.2,-10.2z" style="fill:rgb(227,212,193);fill-opacity:1"></path><path d="M79.0,-12.4L76.4,-12.5L81.0,-10.6z" style="fill:rgb(246,230,210);fill-opacity:1"></path><path d="M-8.0,-123.2L-12.4,-120.8L79.1,-96.5z" style="fill:rgb(254,237,217);fill-opacity:1"></path><path d="M79.9,-7.3L81.4,-9.3L79.9,-12.0z" style="fill:rgb(237,222,202);fill-opacity:1"></path><path d="M76.5,-12.8L79.4,-10.0L81.0,-11.4z" style="fill:rgb(250,234,213);fill-opacity:1"></path><path d="M-14.2,-40.3L73.3,-13.7L73.3,-92.0z" style="fill:rgb(247,231,211);fill-opacity:1"></path><path d="M78.7,-11.0L80.3,-7.2L80.6,-11.8z" style="fill:rgb(243,227,207);fill-opacity:1"></path><path d="M79.3,-13.9L80.7,-15.7L81.4,-18.3z" style="fill:rgb(220,206,188);fill-opacity:1"></path><path d="M-11.6,-121.4L-13.5,-119.2L75.6,-94.6z" style="fill:rgb(261,244,223);fill-opacity:1"></path><path d="M80.4,-16.6L79.4,-13.9L81.6,-18.3z" style="fill:rgb(217,203,185);fill-opacity:1"></path><path d="M-13.1,-120.0L-13.8,-116.8L74.3,-93.1z" style="fill:rgb(258,241,220);fill-opacity:1"></path><path d="M75.5,-12.3L80.2,-14.5L81.0,-17.3zM76.7,-14.8L75.7,-12.1L81.3,-17.1z" style="fill:rgb(224,209,191);fill-opacity:1"></path><path d="M73.7,-12.3L77.3,-13.0L74.9,-13.0zM72.4,-12.7L75.4,-12.2L75.2,-13.3z" style="fill:rgb(217,203,185);fill-opacity:1"></path><path d="M74.1,-12.4L76.7,-12.4L77.4,-15.4z" style="fill:rgb(232,217,198);fill-opacity:1"></path><path d="M72.5,-12.4L75.6,-12.3L75.2,-15.0z" style="fill:rgb(241,226,206);fill-opacity:1"></path><path d="M72.2,-14.9L73.2,-11.9L75.8,-14.5zM74.6,-14.6L74.6,-11.9L77.8,-15.1z" style="fill:rgb(238,223,203);fill-opacity:1"></path><path d="M-73.7,11.4L-73.2,97.5L-66.1,13.7z" style="fill:rgb(80,75,68);fill-opacity:1"></path><path d="M-67.0,13.8L-66.6,99.5L-61.1,10.7z" style="fill:rgb(77,73,66);fill-opacity:1"></path><path d="M80.2,-15.6L81.4,-17.3L81.1,-95.2z" style="fill:rgb(227,212,193);fill-opacity:1"></path><path d="M76.5,-13.9L81.0,-16.2L80.5,-94.3z" style="fill:rgb(240,225,205);fill-opacity:1"></path><path d="M-8.9,-123.1L78.1,-96.6L80.4,-96.5z" style="fill:rgb(241,225,205);fill-opacity:1"></path><path d="M-68.3,9.0L-74.1,12.3L-60.6,11.5z" style="fill:rgb(82,78,71);fill-opacity:1"></path><path d="M74.5,-13.5L77.5,-14.2L77.0,-92.4z" style="fill:rgb(249,233,213);fill-opacity:1"></path><path d="M72.3,-13.9L75.5,-13.6L75.0,-92.0z" style="fill:rgb(253,236,216);fill-opacity:1"></path><path d="M-12.4,-121.1L74.7,-94.4L79.1,-96.9z" style="fill:rgb(254,237,217);fill-opacity:1"></path><path d="M-74.2,12.0L-66.5,14.5L-60.7,11.1z" style="fill:rgb(82,78,71);fill-opacity:1"></path><path d="M-13.7,-119.7L73.6,-92.8L75.3,-95.2z" style="fill:rgb(261,244,223);fill-opacity:1"></path><path d="M-14.2,-117.5L73.3,-90.6L73.8,-93.8z" style="fill:rgb(258,241,220);fill-opacity:1"></path><path d="M-81.4,8.5L-80.2,12.0L-78.8,10.0z" style="fill:rgb(225,211,192);fill-opacity:1"></path><path d="M-80.9,11.2L-78.2,12.9L-79.3,9.4zM8.9,38.2L79.7,0.6L80.7,-2.4z" style="fill:rgb(224,209,191);fill-opacity:1"></path><path d="M-81.4,9.5L-79.0,11.0L-79.3,2.7zM-81.3,2.0L-81.0,10.2L-78.9,3.5z" style="fill:rgb(237,221,202);fill-opacity:1"></path><path d="M80.3,-93.4L80.5,-15.5L81.4,-95.2z" style="fill:rgb(227,212,193);fill-opacity:1"></path><path d="M-79.5,-0.7L-80.9,1.5L-76.4,-1.0z" style="fill:rgb(250,234,213);fill-opacity:1"></path><path d="M-80.5,0.3L-81.4,3.6L-78.0,0.8z" style="fill:rgb(249,233,212);fill-opacity:1"></path><path d="M-81.1,1.0L-78.6,1.6L-76.6,-1.4z" style="fill:rgb(254,238,217);fill-opacity:1"></path><path d="M9.8,36.1L80.6,-1.4L80.6,-9.0z" style="fill:rgb(240,225,205);fill-opacity:1"></path><path d="M-81.6,2.8L-79.1,4.5L-78.4,0.3z" style="fill:rgb(248,232,212);fill-opacity:1"></path><path d="M77.4,-12.8L6.9,25.5L80.2,-10.7z" style="fill:rgb(259,242,221);fill-opacity:1"></path><path d="M9.8,29.6L80.8,-8.0L79.5,-11.4z" style="fill:rgb(252,235,215);fill-opacity:1"></path><path d="M76.5,-91.7L77.0,-13.6L81.0,-94.1z" style="fill:rgb(240,225,205);fill-opacity:1"></path><path d="M74.5,-91.4L75.0,-13.1L77.5,-92.1z" style="fill:rgb(249,233,213);fill-opacity:1"></path><path d="M72.3,-91.8L72.8,-13.4L75.5,-91.4z" style="fill:rgb(253,236,216);fill-opacity:1"></path><path d="M79.5,-96.9L77.2,-97.0L81.4,-95.3z" style="fill:rgb(246,230,210);fill-opacity:1"></path><path d="M80.3,-92.4L81.6,-94.2L80.3,-96.7z" style="fill:rgb(237,222,202);fill-opacity:1"></path><path d="M77.3,-97.2L80.0,-94.7L81.3,-96.1z" style="fill:rgb(250,234,213);fill-opacity:1"></path><path d="M-78.3,-0.8L7.8,25.4L78.3,-12.6z" style="fill:rgb(254,237,217);fill-opacity:1"></path><path d="M79.2,-95.8L80.7,-92.4L81.0,-96.4z" style="fill:rgb(243,227,207);fill-opacity:1"></path><path d="M78.2,-97.3L73.7,-94.6L80.7,-95.2z" style="fill:rgb(259,242,221);fill-opacity:1"></path><path d="M76.3,-90.8L81.2,-93.2L79.8,-96.3z" style="fill:rgb(252,235,215);fill-opacity:1"></path><path d="M73.7,-95.1L76.3,-93.0L80.7,-95.8z" style="fill:rgb(259,242,221);fill-opacity:1"></path><path d="M75.7,-93.8L76.9,-90.5L80.5,-96.1z" style="fill:rgb(252,235,215);fill-opacity:1"></path><path d="M74.6,-95.6L72.5,-92.9L77.2,-93.3z" style="fill:rgb(265,248,227);fill-opacity:1"></path><path d="M74.3,-90.4L77.7,-91.1L76.2,-94.4z" style="fill:rgb(259,242,221);fill-opacity:1"></path><path d="M72.4,-93.5L75.1,-92.2L77.1,-94.0z" style="fill:rgb(263,247,225);fill-opacity:1"></path><path d="M73.0,-94.1L72.4,-90.4L75.8,-92.9z" style="fill:rgb(262,245,223);fill-opacity:1"></path><path d="M74.5,-93.0L74.9,-90.0L76.9,-94.3z" style="fill:rgb(255,239,218);fill-opacity:1"></path><path d="M71.9,-90.9L75.7,-90.5L75.2,-93.5z" style="fill:rgb(261,244,223);fill-opacity:1"></path><path d="M-80.1,9.6L-79.2,12.5L6.6,36.2z" style="fill:rgb(231,216,197);fill-opacity:1"></path><path d="M-79.9,3.1L-79.9,10.6L6.6,29.7z" style="fill:rgb(247,231,211);fill-opacity:1"></path><path d="M-77.5,-1.2L-79.6,1.3L8.8,25.3z" style="fill:rgb(261,244,223);fill-opacity:1"></path><path d="M6.7,121.5L12.6,118.4L12.2,32.7z" style="fill:rgb(77,73,66);fill-opacity:1"></path><path d="M-79.2,0.4L-80.1,4.1L7.3,27.1z" style="fill:rgb(258,241,220);fill-opacity:1"></path><path d="M0.1,119.1L7.7,121.4L7.3,35.4z" style="fill:rgb(80,75,68);fill-opacity:1"></path><path d="M10.4,35.4L9.2,38.4L81.0,-2.2z" style="fill:rgb(224,209,191);fill-opacity:1"></path><path d="M10.2,28.9L10.2,36.4L81.0,-8.7z" style="fill:rgb(240,225,205);fill-opacity:1"></path><path d="M7.0,24.9L9.8,27.1L80.2,-11.2z" style="fill:rgb(259,242,221);fill-opacity:1"></path><path d="M9.2,26.3L10.4,29.9L80.2,-11.2z" style="fill:rgb(252,235,215);fill-opacity:1"></path><path d="M0.1,33.7L0.6,119.8L7.7,36.0z" style="fill:rgb(80,75,68);fill-opacity:1"></path><path d="M6.8,36.1L7.2,121.8L12.6,32.9z" style="fill:rgb(77,73,66);fill-opacity:1"></path><path d="M-79.8,11.9L7.0,38.5L5.9,35.6z" style="fill:rgb(231,216,197);fill-opacity:1"></path><path d="M-80.4,9.9L6.2,36.6L6.1,29.0z" style="fill:rgb(247,231,211);fill-opacity:1"></path><path d="M-79.8,0.8L6.5,27.4L8.5,24.7z" style="fill:rgb(261,244,223);fill-opacity:1"></path><path d="M-80.4,3.4L6.1,30.1L6.8,26.4z" style="fill:rgb(258,241,220);fill-opacity:1"></path><path d="M5.5,31.3L-0.3,34.6L13.2,33.8zM-0.4,34.2L7.3,36.8L13.1,33.4z" style="fill:rgb(82,78,71);fill-opacity:1"></path><path d="M6.9,38.4L10.8,37.5L8.1,37.6zM5.3,37.9L8.5,38.5L8.5,37.2z" style="fill:rgb(217,203,185);fill-opacity:1"></path><path d="M7.3,38.2L10.2,38.1L11.1,34.8z" style="fill:rgb(232,217,198);fill-opacity:1"></path><path d="M5.4,38.2L8.8,38.3L8.5,35.4z" style="fill:rgb(241,226,206);fill-opacity:1"></path><path d="M5.0,35.4L6.1,38.7L9.1,35.9zM7.8,35.8L7.8,38.7L11.5,35.2z" style="fill:rgb(238,223,203);fill-opacity:1"></path><path d="M7.6,36.8L11.2,36.0L10.8,28.2z" style="fill:rgb(249,233,213);fill-opacity:1"></path><path d="M5.0,36.3L8.8,36.7L8.5,28.7z" style="fill:rgb(253,236,216);fill-opacity:1"></path><path d="M7.8,29.3L8.2,37.2L11.3,28.6z" style="fill:rgb(249,233,213);fill-opacity:1"></path><path d="M5.2,28.9L5.5,36.9L9.0,29.3z" style="fill:rgb(253,236,216);fill-opacity:1"></path><path d="M7.7,24.3L5.5,27.2L10.7,26.8z" style="fill:rgb(265,248,227);fill-opacity:1"></path><path d="M7.6,30.3L11.4,29.5L9.8,25.7z" style="fill:rgb(259,242,221);fill-opacity:1"></path><path d="M5.3,26.6L8.3,28.1L10.7,26.2z" style="fill:rgb(263,247,225);fill-opacity:1"></path><path d="M6.0,26.1L5.2,30.2L9.0,27.4z" style="fill:rgb(262,245,223);fill-opacity:1"></path><path d="M7.7,27.3L8.1,30.7L10.4,25.9z" style="fill:rgb(255,239,218);fill-opacity:1"></path><path d="M4.8,29.7L8.9,30.2L8.5,26.8z" style="fill:rgb(261,244,223);fill-opacity:1"></path></svg>
