<svg viewBox="-160 -160 320 320" width="320" height="320" xmlns="http://www.w3.org/2000/svg" role="img" aria-label="Lampe de table · 25 cm · modèle générique"><path d="M1.2,59.8L-13.7,60.7L0.3,78.8zM15.0,60.9L0.2,59.8L-0.3,78.8zM-12.7,60.6L-26.1,63.4L0.7,78.6zM27.2,63.7L14.0,60.8L-0.8,78.6zM-25.2,63.1L-36.0,67.4L0.9,78.3zM36.8,67.8L26.2,63.4L-0.9,78.3zM-35.1,66.9L-42.3,72.5L1.0,78.1zM42.7,73.0L35.9,67.3L-1.0,78.1zM-41.7,71.7L-44.5,78.1L1.0,78.0zM44.5,78.7L42.2,72.2L-1.0,78.0z" style="fill:rgb(82,78,71);fill-opacity:1"></path><path d="M41.2,95.7L44.0,89.4L43.8,77.2zM-44.0,76.7L-43.9,89.8L-41.5,83.1z" style="fill:rgb(71,67,61);fill-opacity:1"></path><path d="M-44.5,77.2L-42.2,83.7L1.0,77.9z" style="fill:rgb(82,78,71);fill-opacity:1"></path><path d="M-44.1,88.8L-41.7,95.2L-41.7,82.2z" style="fill:rgb(71,67,61);fill-opacity:1"></path><path d="M41.7,84.2L44.5,77.7L-1.0,77.9z" style="fill:rgb(82,78,71);fill-opacity:1"></path><path d="M41.2,83.6L41.4,95.8L44.1,77.2z" style="fill:rgb(71,67,61);fill-opacity:1"></path><path d="M-42.7,82.9L-35.9,88.5L1.0,77.7zM35.1,89.0L42.3,83.4L-1.0,77.7z" style="fill:rgb(82,78,71);fill-opacity:1"></path><path d="M34.4,100.4L41.9,95.0L41.6,82.7z" style="fill:rgb(76,71,65);fill-opacity:1"></path><path d="M-42.2,82.3L-42.2,95.1L-35.1,88.0z" style="fill:rgb(75,71,64);fill-opacity:1"></path><path d="M5.3,79.7L6.0,78.0L5.8,-15.2zM-6.0,77.9L-5.4,79.6L-5.6,-14.6z" style="fill:rgb(71,67,61);fill-opacity:1"></path><path d="M4.3,80.1L5.9,78.9L5.5,-14.5z" style="fill:rgb(76,71,65);fill-opacity:1"></path><path d="M-42.6,94.3L-35.4,100.0L-35.5,87.2zM-6.0,78.8L-4.4,80.1L-4.8,-13.9z" style="fill:rgb(75,71,64);fill-opacity:1"></path><path d="M2.9,80.5L5.1,79.7L4.7,-13.8z" style="fill:rgb(79,74,68);fill-opacity:1"></path><path d="M-5.2,79.6L-3.0,80.5L-3.5,-13.4z" style="fill:rgb(78,74,67);fill-opacity:1"></path><path d="M1.2,80.8L3.9,80.3L3.4,-13.3z" style="fill:rgb(81,76,70);fill-opacity:1"></path><path d="M-4.0,80.2L-1.4,80.8L-1.9,-13.0z" style="fill:rgb(81,76,69);fill-opacity:1"></path><path d="M-36.8,88.0L-26.2,92.5L0.9,77.6z" style="fill:rgb(82,78,71);fill-opacity:1"></path><path d="M-0.6,80.8L2.2,80.7L1.7,-13.0z" style="fill:rgb(82,77,70);fill-opacity:1"></path><path d="M34.6,88.3L34.8,100.6L42.0,82.9z" style="fill:rgb(76,71,65);fill-opacity:1"></path><path d="M-2.4,80.6L0.4,80.8L-0.1,-12.9z" style="fill:rgb(82,77,70);fill-opacity:1"></path><path d="M25.2,92.8L36.0,88.5L-0.9,77.5zM-27.2,92.2L-14.0,95.1L0.8,77.3z" style="fill:rgb(82,78,71);fill-opacity:1"></path><path d="M24.5,104.1L35.5,100.0L35.3,87.6z" style="fill:rgb(79,74,68);fill-opacity:1"></path><path d="M12.7,95.3L26.1,92.5L-0.7,77.3z" style="fill:rgb(82,78,71);fill-opacity:1"></path><path d="M-36.3,87.4L-36.2,100.0L-25.4,91.9z" style="fill:rgb(78,74,67);fill-opacity:1"></path><path d="M1.0,-36.4L-10.1,-35.7L0.3,-22.3zM11.1,-35.6L-0.0,-36.4L-0.3,-22.3z" style="fill:rgb(298,280,240);fill-opacity:1"></path><path d="M-36.7,99.3L-25.8,103.9L-25.9,91.2z" style="fill:rgb(78,74,67);fill-opacity:1"></path><path d="M-15.0,95.0L-0.2,96.1L0.3,77.1zM-1.2,96.1L13.7,95.1L-0.3,77.0z" style="fill:rgb(82,78,71);fill-opacity:1"></path><path d="M-9.1,-35.8L-19.1,-33.7L0.7,-22.5z" style="fill:rgb(298,280,240);fill-opacity:1"></path><path d="M-6.0,-15.3L-5.8,78.9L-5.4,-13.6z" style="fill:rgb(71,67,61);fill-opacity:1"></path><path d="M19.9,-33.5L10.1,-35.7L-0.8,-22.5z" style="fill:rgb(298,280,240);fill-opacity:1"></path><path d="M5.3,-13.5L5.5,79.7L6.0,-15.2z" style="fill:rgb(71,67,61);fill-opacity:1"></path><path d="M24.7,92.0L24.9,104.4L35.8,87.9z" style="fill:rgb(79,74,68);fill-opacity:1"></path><path d="M-6.0,-14.4L-5.6,79.6L-4.4,-13.1z" style="fill:rgb(75,71,64);fill-opacity:1"></path><path d="M4.3,-13.0L4.7,80.3L5.9,-14.3z" style="fill:rgb(76,71,65);fill-opacity:1"></path><path d="M-5.2,-13.6L-4.8,80.3L-3.0,-12.7z" style="fill:rgb(78,74,67);fill-opacity:1"></path><path d="M-18.2,-34.0L-26.2,-30.8L0.9,-22.8z" style="fill:rgb(298,280,240);fill-opacity:1"></path><path d="M2.9,-12.6L3.4,80.9L5.1,-13.5z" style="fill:rgb(79,74,68);fill-opacity:1"></path><path d="M26.8,-30.4L18.9,-33.8L-0.9,-22.8z" style="fill:rgb(298,280,240);fill-opacity:1"></path><path d="M12.1,106.4L25.7,103.9L25.5,91.5z" style="fill:rgb(81,76,70);fill-opacity:1"></path><path d="M-4.0,-13.0L-3.5,80.8L-1.4,-12.4z" style="fill:rgb(81,76,69);fill-opacity:1"></path><path d="M1.2,-12.4L1.7,81.2L3.9,-12.9z" style="fill:rgb(81,76,70);fill-opacity:1"></path><path d="M-2.4,-12.6L-1.9,81.2L0.4,-12.4zM-0.6,-12.4L-0.1,81.3L2.2,-12.5z" style="fill:rgb(82,77,70);fill-opacity:1"></path><path d="M-26.8,91.4L-26.7,104.0L-13.3,94.4zM-27.2,103.4L-13.7,106.4L-13.8,93.8z" style="fill:rgb(81,76,69);fill-opacity:1"></path><path d="M12.4,94.4L12.6,106.8L26.0,91.9z" style="fill:rgb(81,76,70);fill-opacity:1"></path><path d="M-25.4,-31.3L-30.8,-27.0L1.0,-22.9z" style="fill:rgb(298,280,240);fill-opacity:1"></path><path d="M-1.5,107.1L13.4,106.4L13.2,94.0z" style="fill:rgb(82,77,70);fill-opacity:1"></path><path d="M31.1,-26.6L26.0,-30.9L-1.0,-23.0z" style="fill:rgb(298,280,240);fill-opacity:1"></path><path d="M-15.1,106.0L-0.1,107.2L-0.3,94.8zM-14.7,94.1L-14.6,106.6L0.2,95.3z" style="fill:rgb(82,77,70);fill-opacity:1"></path><path d="M0.6,-17.1L-2.6,-16.8L0.3,-13.4zM2.7,-16.8L-0.5,-17.1L-0.2,-13.4zM-1.5,-17.0L-4.3,-16.3L0.7,-13.6zM4.4,-16.3L1.7,-17.0L-0.7,-13.6z" style="fill:rgb(82,78,71);fill-opacity:1"></path><path d="M-1.2,95.1L-1.0,107.5L13.8,94.4z" style="fill:rgb(82,77,70);fill-opacity:1"></path><path d="M-3.3,-16.6L-5.6,-15.6L0.9,-13.9zM5.7,-15.5L3.5,-16.6L-0.9,-13.8zM-4.7,-16.1L-6.4,-14.7L1.0,-14.0zM6.5,-14.7L4.9,-16.1L-1.0,-14.0zM-5.8,-15.6L-6.5,-13.8L1.0,-14.2zM6.5,-13.7L5.9,-15.5L-1.0,-14.2zM-6.5,-14.8L-5.9,-13.0L1.0,-14.3zM5.8,-12.9L6.5,-14.7L-1.0,-14.3z" style="fill:rgb(82,78,71);fill-opacity:1"></path><path d="M-30.2,-27.8L-32.3,-22.9L1.0,-23.1zM32.3,-22.5L30.6,-27.4L-1.0,-23.1z" style="fill:rgb(298,280,240);fill-opacity:1"></path><path d="M-6.5,-13.8L-4.9,-12.4L1.0,-14.5zM4.7,-12.4L6.4,-13.8L-1.0,-14.5zM-5.7,-13.0L-3.5,-11.9L0.9,-14.7zM3.3,-11.9L5.6,-12.9L-0.9,-14.6zM-4.4,-12.2L-1.7,-11.5L0.7,-14.9zM1.5,-11.5L4.3,-12.2L-0.7,-14.9zM-2.7,-11.7L0.5,-11.4L0.2,-15.1zM-0.6,-11.4L2.6,-11.7L-0.3,-15.1z" style="fill:rgb(82,78,71);fill-opacity:1"></path><path d="M29.6,-11.4L31.8,-16.2L31.7,-24.0z" style="fill:rgb(263,248,212);fill-opacity:1"></path><path d="M-31.8,-24.3L-31.8,-15.7L-29.8,-19.4z" style="fill:rgb(262,246,210);fill-opacity:1"></path><path d="M-32.3,-23.8L-30.6,-18.9L1.0,-23.2zM30.2,-18.5L32.3,-23.4L-1.0,-23.2z" style="fill:rgb(298,280,240);fill-opacity:1"></path><path d="M-32.0,-16.7L-30.0,-11.8L-30.0,-20.3z" style="fill:rgb(262,246,210);fill-opacity:1"></path><path d="M1.2,-106.7L-13.4,-105.8L0.3,-88.2zM14.6,-105.6L0.2,-106.7L-0.3,-88.2z" style="fill:rgb(261,244,217);fill-opacity:1"></path><path d="M29.7,-19.1L29.8,-11.4L31.9,-23.9z" style="fill:rgb(263,248,212);fill-opacity:1"></path><path d="M-12.3,-105.9L-25.4,-103.2L0.7,-88.4zM26.5,-102.9L13.6,-105.8L-0.8,-88.4z" style="fill:rgb(261,244,217);fill-opacity:1"></path><path d="M-31.1,-19.7L-26.0,-15.4L1.0,-23.4zM25.4,-15.1L30.8,-19.3L-1.0,-23.4z" style="fill:rgb(298,280,240);fill-opacity:1"></path><path d="M24.7,-8.1L30.4,-12.2L30.1,-20.0z" style="fill:rgb(276,260,222);fill-opacity:1"></path><path d="M-30.6,-20.2L-30.6,-11.9L-25.1,-15.8z" style="fill:rgb(275,259,221);fill-opacity:1"></path><path d="M-24.5,-103.5L-35.0,-99.3L0.9,-88.7zM35.8,-98.9L25.5,-103.2L-0.9,-88.7z" style="fill:rgb(261,244,217);fill-opacity:1"></path><path d="M-31.0,-12.8L-25.5,-8.3L-25.5,-16.6z" style="fill:rgb(275,259,221);fill-opacity:1"></path><path d="M-26.8,-15.9L-18.9,-12.5L0.9,-23.5z" style="fill:rgb(298,280,240);fill-opacity:1"></path><path d="M57.4,-5.4L61.1,-13.9L42.4,-89.8z" style="fill:rgb(238,223,198);fill-opacity:1"></path><path d="M18.2,-12.3L26.2,-15.6L-0.9,-23.6z" style="fill:rgb(298,280,240);fill-opacity:1"></path><path d="M24.9,-15.7L25.1,-7.9L30.5,-19.8z" style="fill:rgb(276,260,222);fill-opacity:1"></path><path d="M-61.1,-14.6L-58.1,-6.1L-40.4,-85.0z" style="fill:rgb(237,222,197);fill-opacity:1"></path><path d="M-19.9,-12.8L-10.1,-10.6L0.8,-23.8z" style="fill:rgb(298,280,240);fill-opacity:1"></path><path d="M-34.1,-99.8L-41.2,-94.4L1.0,-88.9z" style="fill:rgb(261,244,217);fill-opacity:1"></path><path d="M9.1,-10.5L19.1,-12.6L-0.7,-23.8z" style="fill:rgb(298,280,240);fill-opacity:1"></path><path d="M17.4,-5.5L25.8,-8.5L25.6,-16.4z" style="fill:rgb(287,270,231);fill-opacity:1"></path><path d="M41.6,-93.9L34.9,-99.4L-1.0,-88.9z" style="fill:rgb(261,244,217);fill-opacity:1"></path><path d="M-26.3,-16.5L-26.3,-8.4L-18.1,-13.0z" style="fill:rgb(286,269,230);fill-opacity:1"></path><path d="M-11.1,-10.8L0.0,-9.9L0.3,-24.0zM-1.0,-9.9L10.1,-10.6L-0.3,-24.0z" style="fill:rgb(298,280,240);fill-opacity:1"></path><path d="M-26.8,-9.1L-18.5,-5.6L-18.6,-13.7z" style="fill:rgb(286,269,230);fill-opacity:1"></path><path d="M17.7,-13.1L17.9,-5.2L26.1,-16.1z" style="fill:rgb(287,270,231);fill-opacity:1"></path><path d="M-42.6,-90.3L-61.1,-13.7L-40.4,-84.0z" style="fill:rgb(237,222,197);fill-opacity:1"></path><path d="M8.5,-3.9L18.7,-5.7L18.5,-13.6z" style="fill:rgb(294,277,237);fill-opacity:1"></path><path d="M-19.5,-13.6L-19.4,-5.5L-9.3,-11.3zM-19.9,-6.1L-9.7,-3.8L-9.8,-11.9z" style="fill:rgb(293,276,236);fill-opacity:1"></path><path d="M-40.6,-95.1L-43.3,-88.9L1.0,-89.0z" style="fill:rgb(261,244,217);fill-opacity:1"></path><path d="M8.8,-11.4L9.0,-3.5L19.0,-13.2z" style="fill:rgb(294,277,237);fill-opacity:1"></path><path d="M43.2,-88.3L41.0,-94.7L-1.0,-89.0z" style="fill:rgb(261,244,217);fill-opacity:1"></path><path d="M-1.4,-3.4L9.9,-3.8L9.7,-11.8zM-11.1,-4.2L0.1,-3.2L-0.1,-11.2zM-10.7,-11.6L-10.6,-3.6L0.4,-10.7zM-1.0,-10.9L-0.9,-2.9L10.2,-11.3z" style="fill:rgb(297,280,239);fill-opacity:1"></path><path d="M48.3,1.2L58.1,-6.1L40.1,-84.5z" style="fill:rgb(249,234,207);fill-opacity:1"></path><path d="M40.0,-83.6L57.7,-5.3L42.7,-89.8z" style="fill:rgb(238,223,198);fill-opacity:1"></path><path d="M-58.7,-6.9L-49.4,0.7L-34.6,-80.2z" style="fill:rgb(248,233,206);fill-opacity:1"></path><path d="M-43.2,-89.8L-41.0,-83.5L1.0,-89.1zM40.6,-83.0L43.3,-89.3L-1.0,-89.1z" style="fill:rgb(261,244,217);fill-opacity:1"></path><path d="M-41.0,-84.8L-58.4,-6.1L-34.3,-79.4z" style="fill:rgb(248,233,206);fill-opacity:1"></path><path d="M-41.6,-84.3L-34.9,-78.7L1.0,-89.3zM34.1,-78.3L41.2,-83.8L-1.0,-89.3z" style="fill:rgb(261,244,217);fill-opacity:1"></path><path d="M33.6,-79.0L48.8,1.4L40.6,-84.3z" style="fill:rgb(249,234,207);fill-opacity:1"></path><path d="M34.5,6.5L49.2,0.8L34.0,-79.8z" style="fill:rgb(258,242,214);fill-opacity:1"></path><path d="M-50.4,0.1L-36.1,6.0L-25.3,-76.3zM-35.2,-79.9L-50.0,0.8L-24.9,-75.6z" style="fill:rgb(257,241,214);fill-opacity:1"></path><path d="M-35.8,-79.3L-25.5,-74.9L0.9,-89.4zM24.5,-74.6L35.0,-78.8L-0.9,-89.5z" style="fill:rgb(261,244,217);fill-opacity:1"></path><path d="M17.4,9.8L35.6,6.2L24.5,-76.0z" style="fill:rgb(264,247,219);fill-opacity:1"></path><path d="M24.0,-75.4L35.1,6.8L34.5,-79.5z" style="fill:rgb(258,242,214);fill-opacity:1"></path><path d="M-26.5,-75.2L-13.6,-72.4L0.8,-89.7z" style="fill:rgb(261,244,217);fill-opacity:1"></path><path d="M-37.1,5.7L-19.2,9.5L-13.6,-73.8z" style="fill:rgb(263,247,219);fill-opacity:1"></path><path d="M12.3,-72.2L25.4,-74.9L-0.7,-89.7zM-14.6,-72.5L-0.2,-71.4L0.3,-89.9zM-1.2,-71.4L13.4,-72.3L-0.3,-90.0z" style="fill:rgb(261,244,217);fill-opacity:1"></path><path d="M-26.0,-76.0L-36.7,6.3L-13.1,-73.2z" style="fill:rgb(263,247,219);fill-opacity:1"></path><path d="M-1.5,10.8L18.4,9.6L12.6,-73.7zM-20.3,9.4L-0.4,10.8L-0.5,-72.9z" style="fill:rgb(267,250,222);fill-opacity:1"></path><path d="M12.0,-73.1L17.9,10.2L25.0,-75.6z" style="fill:rgb(264,247,219);fill-opacity:1"></path><path d="M-14.2,-73.4L-19.8,9.9L-0.0,-72.4zM-1.1,-72.4L-1.0,11.2L13.1,-73.2z" style="fill:rgb(267,250,222);fill-opacity:1"></path></svg>
